<svg width="95" height="59" viewBox="0 0 95 59" version="1.1" xmlns="http://www.w3.org/2000/svg" xmlns:xlink="http://www.w3.org/1999/xlink">
<title>icon-sail</title>
<desc>Created using Figma</desc>
<g id="Canvas" transform="translate(-1678 -1394)">
<g id="icon-sail">
<g id="Shape">
<use xlink:href="#path0_fill" transform="translate(1680 1444)" fill="#0072A0"/>
<use xlink:href="#path1_stroke" transform="translate(1680 1444)" fill="#FFFFFF"/>
</g>
<g id="Shape">
<use xlink:href="#path2_fill" transform="translate(1679 1408)" fill="#0072A0"/>
<use xlink:href="#path3_stroke" transform="translate(1679 1408)" fill="#FFFFFF"/>
</g>
<g id="Shape">
<use xlink:href="#path4_fill" transform="translate(1751 1424)" fill="#0072A0"/>
<use xlink:href="#path5_stroke" transform="translate(1751 1424)" fill="#FFFFFF"/>
</g>
<g id="Shape">
<use xlink:href="#path6_fill" transform="translate(1742 1443)" fill="#0072A0"/>
<use xlink:href="#path7_stroke" transform="translate(1742 1443)" fill="#FFFFFF"/>
</g>
<g id="Path 3">
<use xlink:href="#path8_stroke" transform="translate(1690 1395)" fill="#0072A0"/>
</g>
</g>
</g>
<defs>
<path id="path0_fill" d="M 60.038 0.501971C 59.3066 0.164142 58.5293 0 57.6613 0C 55.0367 0 53.6784 1.51525 52.5868 2.73272C 51.648 3.77962 51.028 4.47147 49.6441 4.47147C 48.2599 4.47147 47.6399 3.77962 46.7009 2.73272C 45.6091 1.51525 44.2507 0 41.6261 0C 39.0014 0 37.6428 1.51504 36.5512 2.73272C 35.6124 3.77962 34.9922 4.47147 33.608 4.47147C 32.2236 4.47147 31.6032 3.77962 30.6643 2.73252C 29.5725 1.51504 28.214 0 25.5892 0C 22.9644 0 21.606 1.51504 20.5142 2.73252C 19.5754 3.77983 18.9552 4.47147 17.5708 4.47147C 16.1862 4.47147 15.5657 3.77962 14.6267 2.73252C 13.5349 1.51504 12.1763 0 9.55129 0C 6.9263 0 5.56785 1.51504 4.47608 2.73252C 3.53712 3.77983 2.91654 4.47147 1.53197 4.47147C 0.685981 4.47147 0 5.26126 0 6.23573C 0 7.21021 0.6858 8 1.53197 8C 4.15697 8 5.51577 6.48496 6.60736 5.26748C 7.54633 4.22017 8.16654 3.52853 9.55147 3.52853C 10.9362 3.52853 11.5566 4.22038 12.4956 5.26748C 13.5874 6.48496 14.946 8 17.571 8C 20.1958 8 21.5542 6.48496 22.6458 5.26748C 23.5846 4.22017 24.2048 3.52853 25.5894 3.52853C 26.9738 3.52853 27.594 4.22038 28.5328 5.26748C 29.6246 6.48496 30.983 8 33.6078 8C 36.2326 8 37.5909 6.48496 38.6827 5.26748C 39.6215 4.22017 40.2417 3.52853 41.6261 3.52853C 43.0105 3.52853 43.6307 4.22038 44.5695 5.26748C 45.6612 6.48496 47.0195 8 49.6443 8C 52.2689 8 53.627 6.48496 54.7186 5.26728C 55.6574 4.22038 56.2774 3.52853 57.6615 3.52853C 58.1312 3.52853 58.5357 3.60988 58.8976 3.77692C 59.6821 4.13966 60.5746 3.70056 60.8896 2.79622C 61.2043 1.89189 60.8232 0.864702 60.038 0.501971Z"/>
<path id="path1_stroke" d="M 60.038 0.501971L 60.4049 -0.292377L 60.4049 -0.292383L 60.038 0.501971ZM 52.5868 2.73272L 53.2382 3.31689L 53.2383 3.31684L 52.5868 2.73272ZM 46.7009 2.73272L 46.0495 3.3169L 46.0495 3.31695L 46.7009 2.73272ZM 36.5512 2.73272L 37.2027 3.31689L 37.2027 3.31679L 36.5512 2.73272ZM 30.6643 2.73252L 31.3157 2.14835L 31.3157 2.14834L 30.6643 2.73252ZM 20.5142 2.73252L 19.8628 2.14834L 19.8626 2.14848L 20.5142 2.73252ZM 14.6267 2.73252L 15.2781 2.14835L 15.2781 2.14834L 14.6267 2.73252ZM 4.47608 2.73252L 3.82465 2.14834L 3.82458 2.14842L 4.47608 2.73252ZM 6.60736 5.26748L 7.25884 5.8516L 7.25886 5.85158L 6.60736 5.26748ZM 12.4956 5.26748L 11.8441 5.85165L 11.8442 5.85166L 12.4956 5.26748ZM 22.6458 5.26748L 23.2973 5.8516L 23.2974 5.85152L 22.6458 5.26748ZM 28.5328 5.26748L 27.8813 5.85159L 27.8814 5.85166L 28.5328 5.26748ZM 38.6827 5.26748L 39.3341 5.85166L 39.3342 5.85152L 38.6827 5.26748ZM 44.5695 5.26748L 43.918 5.85159L 43.918 5.85166L 44.5695 5.26748ZM 54.7186 5.26728L 54.0672 4.68311L 54.0671 4.68321L 54.7186 5.26728ZM 58.8976 3.77692L 59.2648 2.9827L 59.2643 2.9825L 58.8976 3.77692ZM 60.8896 2.79622L 61.7159 3.08402L 61.7159 3.08387L 60.8896 2.79622ZM 60.4049 -0.292383C 59.5822 -0.666328 58.6201 -0.870268 57.6613 -0.875L 57.6613 0.875C 58.4384 0.870268 59.031 0.994612 59.6711 1.29633L 60.4049 -0.292383ZM 57.6613 -0.875C 54.6181 -0.875 53.0283 0.929532 51.9353 2.14861L 53.2383 3.31684C 54.3284 2.10097 55.4552 0.875 57.6613 0.875L 57.6613 -0.875ZM 51.9354 2.14856C 51.4659 2.67204 51.1512 3.03263 50.7892 3.27187C 50.4442 3.51664 50.1913 3.60853 49.6441 3.59647L 49.6441 5.34647C 50.4808 5.33441 51.2298 5.08038 51.7755 4.71749C 52.3042 4.34909 52.7689 3.8403 53.2382 3.31689L 51.9354 2.14856ZM 49.6441 3.59647C 49.0968 3.60852 48.8437 3.51661 48.4986 3.27184C 48.1366 3.03259 47.8218 2.672 47.3523 2.1485L 46.0495 3.31695C 46.519 3.84035 46.9837 4.34913 47.5125 4.71753C 48.0582 5.0804 48.8073 5.33441 49.6441 5.34647L 49.6441 3.59647ZM 47.3524 2.14855C 46.2592 0.929499 44.6693 -0.875 41.6261 -0.875L 41.6261 0.875C 43.8321 0.875 44.9591 2.101 46.0495 3.3169L 47.3524 2.14855ZM 41.6261 -0.875C 38.5829 -0.875 36.9929 0.929211 35.8997 2.14866L 37.2027 3.31679C 38.2927 2.10088 39.42 0.875 41.6261 0.875L 41.6261 -0.875ZM 35.8998 2.14856C 35.4304 2.67203 35.1156 3.03258 34.7536 3.27183C 34.4085 3.5166 34.1554 3.60852 33.608 3.59647L 33.608 5.34647C 34.4448 5.33441 35.194 5.08041 35.7397 4.71754C 36.2685 4.34913 36.7333 3.84032 37.2027 3.31689L 35.8998 2.14856ZM 33.608 3.59647C 33.0605 3.60852 32.8073 3.51658 32.4621 3.27177C 32.1 3.0325 31.7852 2.67191 31.3157 2.14835L 30.0128 3.31668C 30.4823 3.84023 30.9472 4.34911 31.4761 4.71754C 32.0219 5.08043 32.7711 5.33442 33.608 5.34647L 33.608 3.59647ZM 31.3157 2.14834C 30.2224 0.929217 28.6325 -0.875 25.5892 -0.875L 25.5892 0.875C 27.7955 0.875 28.9225 2.10087 30.0128 3.31669L 31.3157 2.14834ZM 25.5892 -0.875C 22.5459 -0.875 20.956 0.929217 19.8628 2.14834L 21.1656 3.31669C 22.2559 2.10087 23.3829 0.875 25.5892 0.875L 25.5892 -0.875ZM 19.8626 2.14848C 19.3933 2.67211 19.0786 3.03265 18.7166 3.27187C 18.3715 3.51662 18.1183 3.60851 17.5708 3.59647L 17.5708 5.34647C 18.4077 5.33442 19.1568 5.08049 19.7026 4.7176C 20.2315 4.34918 20.6963 3.84024 21.1657 3.31656L 19.8626 2.14848ZM 17.5708 3.59647C 17.0232 3.60851 16.7699 3.51655 16.4246 3.27174C 16.0624 3.03246 15.7476 2.67189 15.2781 2.14835L 13.9752 3.31668C 14.4447 3.84025 14.9097 4.34915 15.4387 4.71757C 15.9846 5.08046 16.7338 5.33442 17.5708 5.34647L 17.5708 3.59647ZM 15.2781 2.14834C 14.1848 0.929168 12.5948 -0.875 9.55129 -0.875L 9.55129 0.875C 11.7578 0.875 12.885 2.10092 13.9752 3.31669L 15.2781 2.14834ZM 9.55129 -0.875C 6.50779 -0.875 4.91791 0.929201 3.82465 2.14834L 5.12752 3.31669C 6.21778 2.10089 7.3448 0.875 9.55129 0.875L 9.55129 -0.875ZM 3.82458 2.14842C 3.35514 2.67202 3.04035 3.03256 2.67819 3.2718C 2.33294 3.51658 2.07961 3.60851 1.53197 3.59647L 1.53197 5.34647C 2.36891 5.33443 3.11815 5.08053 3.66406 4.71767C 4.19308 4.34927 4.65805 3.84032 5.12758 3.31662L 3.82458 2.14842ZM 1.53197 3.59647C 0.0908872 3.59647 -0.875 4.89801 -0.875 6.23573L 0.875 6.23573C 0.875 5.62451 1.28107 5.34647 1.53197 5.34647L 1.53197 3.59647ZM -0.875 6.23573C -0.875 7.57339 0.0906454 8.875 1.53197 8.875L 1.53197 7.125C 1.28096 7.125 0.875 6.84703 0.875 6.23573L -0.875 6.23573ZM 1.53197 8.875C 4.57544 8.875 6.16565 7.07087 7.25884 5.8516L 5.95588 4.68336C 4.8659 5.89904 3.7385 7.125 1.53197 7.125L 1.53197 8.875ZM 7.25886 5.85158C 7.72833 5.32794 8.04305 4.9674 8.40515 4.72818C 8.75034 4.48341 9.00366 4.39149 9.55147 4.40353L 9.55147 2.65353C 8.71436 2.66557 7.9651 2.91947 7.41921 3.28235C 6.89022 3.65078 6.42536 4.15971 5.95586 4.68338L 7.25886 5.85158ZM 9.55147 4.40353C 10.0992 4.39149 10.3525 4.48344 10.6977 4.72825C 11.0599 4.96751 11.3747 5.32809 11.8441 5.85165L 13.147 4.68332C 12.6775 4.15977 12.2127 3.65087 11.6837 3.28244C 11.1378 2.91955 10.3885 2.66558 9.55147 2.65353L 9.55147 4.40353ZM 11.8442 5.85166C 12.9374 7.07083 14.5275 8.875 17.571 8.875L 17.571 7.125C 15.3645 7.125 14.2373 5.89908 13.147 4.68331L 11.8442 5.85166ZM 17.571 8.875C 20.6143 8.875 22.2042 7.07078 23.2973 5.8516L 21.9943 4.68336C 20.9043 5.89913 19.7773 7.125 17.571 7.125L 17.571 8.875ZM 23.2974 5.85152C 23.7668 5.32789 24.0814 4.96736 24.4435 4.72815C 24.7886 4.48339 25.0418 4.39149 25.5894 4.40353L 25.5894 2.65353C 24.7524 2.66558 24.0032 2.9195 23.4574 3.28239C 22.9285 3.65082 22.4637 4.15976 21.9943 4.68344L 23.2974 5.85152ZM 25.5894 4.40353C 26.1369 4.39148 26.39 4.4834 26.7351 4.72819C 27.0972 4.96745 27.4119 5.32803 27.8813 5.85159L 29.1843 4.68338C 28.7149 4.15983 28.2501 3.65094 27.7213 3.2825C 27.1755 2.91959 26.4263 2.66558 25.5894 2.65353L 25.5894 4.40353ZM 27.8814 5.85166C 28.9746 7.07078 30.5645 8.875 33.6078 8.875L 33.6078 7.125C 31.4015 7.125 30.2745 5.89913 29.1842 4.68331L 27.8814 5.85166ZM 33.6078 8.875C 36.6512 8.875 38.2409 7.07075 39.3341 5.85166L 38.0312 4.68331C 36.9409 5.89916 35.8141 7.125 33.6078 7.125L 33.6078 8.875ZM 39.3342 5.85152C 39.8036 5.32789 40.1183 4.96735 40.4803 4.72813C 40.8254 4.48338 41.0786 4.39149 41.6261 4.40353L 41.6261 2.65353C 40.7892 2.66558 40.04 2.91951 39.4942 3.2824C 38.9654 3.65082 38.5005 4.15976 38.0311 4.68344L 39.3342 5.85152ZM 41.6261 4.40353C 42.1735 4.39148 42.4267 4.4834 42.7718 4.72819C 43.1338 4.96745 43.4486 5.32803 43.918 5.85159L 45.221 4.68338C 44.7516 4.15983 44.2868 3.65094 43.7579 3.28249C 43.2122 2.91959 42.463 2.66558 41.6261 2.65353L 41.6261 4.40353ZM 43.918 5.85166C 45.0112 7.07075 46.601 8.875 49.6443 8.875L 49.6443 7.125C 47.438 7.125 46.3112 5.89916 45.2209 4.68331L 43.918 5.85166ZM 49.6443 8.875C 52.6875 8.875 54.2771 7.07069 55.3702 5.85134L 54.0671 4.68321C 52.977 5.89922 51.8504 7.125 49.6443 7.125L 49.6443 8.875ZM 55.3701 5.85144C 55.8395 5.32795 56.1542 4.96738 56.5162 4.72814C 56.8612 4.48337 57.1142 4.39148 57.6615 4.40353L 57.6615 2.65353C 56.8247 2.66559 56.0756 2.91961 55.53 3.2825C 55.0012 3.6509 54.5365 4.1597 54.0672 4.68311L 55.3701 5.85144ZM 57.6615 4.40353C 58.0445 4.39923 58.2643 4.44169 58.5308 4.57134L 59.2643 2.9825C 58.8072 2.77806 58.2179 2.65784 57.6615 2.65353L 57.6615 4.40353ZM 58.5304 4.57115C 59.8704 5.19071 61.2637 4.3823 61.7159 3.08402L 60.0632 2.50843C 59.8855 3.01882 59.4938 3.0886 59.2648 2.9827L 58.5304 4.57115ZM 61.7159 3.08387C 62.1542 1.82479 61.6632 0.288842 60.4049 -0.292377L 59.6711 1.29632C 59.9833 1.44056 60.2545 1.95898 60.0632 2.50857L 61.7159 3.08387Z"/>
<path id="path2_fill" fill-rule="evenodd" d="M 90.2478 14.8123C 90.2385 14.8311 90.2289 14.8495 90.2186 14.8679C 90.0208 15.2274 85.6403 23.1111 79.4019 28.7651C 79.6283 28.9695 79.84 29.175 80.0421 29.3716L 80.0431 29.3726C 80.9891 30.292 81.6141 30.8994 83.009 30.8994C 84.4043 30.8994 85.0294 30.2915 85.9758 29.3716C 87.0762 28.3016 88.4454 26.9703 91.0913 26.9703C 91.9446 26.9703 92.6357 27.6643 92.6357 28.5206C 92.6357 29.3768 91.9443 30.0709 91.0913 30.0709C 89.6962 30.0709 89.0709 30.6788 88.1246 31.5988C 87.0243 32.6687 85.655 34 83.009 34C 80.363 34 78.9939 32.6687 77.8933 31.5989C 76.9468 30.6788 76.3215 30.0709 74.926 30.0709C 73.5311 30.0709 72.9061 30.6783 71.9601 31.5978L 71.9591 31.5988C 70.8586 32.6687 69.4893 34 66.8434 34C 64.1974 34 62.828 32.6686 61.7275 31.5988L 61.7266 31.5978C 60.7805 30.6783 60.1555 30.0709 58.7606 30.0709C 57.3658 30.0709 56.7408 30.6785 55.7949 31.5979L 55.7941 31.5988C 54.6937 32.6687 53.3247 34 50.6788 34C 48.033 34 46.6635 32.6687 45.5631 31.5989C 44.6168 30.6788 43.9916 30.0709 42.5961 30.0709C 41.2004 30.0709 40.5753 30.6786 39.6289 31.5989C 38.5283 32.6687 37.1592 34 34.5132 34C 32.109 34 30.7639 32.9077 29.692 31.8838C 29.0741 31.2937 29.05 30.3123 29.6379 29.6921C 30.2258 29.0718 31.2032 29.0477 31.821 29.6378C 32.5946 30.3765 33.2406 30.8997 34.5132 30.8997C 35.9086 30.8997 36.5337 30.2917 37.4801 29.3718C 38.5804 28.3018 39.9501 26.9705 42.5958 26.9705C 45.2416 26.9705 46.611 28.302 47.7115 29.3718L 47.7123 29.3726C 48.6584 30.2921 49.2836 30.8997 50.6785 30.8997C 52.0735 30.8997 52.6986 30.2917 53.6449 29.3718C 54.7452 28.302 56.1145 26.9705 58.7603 26.9705C 61.4062 26.9705 62.7756 28.302 63.876 29.3718L 63.8767 29.3726C 64.8229 30.2921 65.448 30.8997 66.843 30.8997C 68.2379 30.8997 68.863 30.2921 69.8092 29.3726L 69.8099 29.3718C 70.9103 28.3018 72.2797 26.9705 74.9257 26.9705C 75.5253 26.9705 76.0564 27.0414 76.5364 27.1595C 81.7434 22.7449 85.8392 16.215 87.1071 14.0748C 78.848 12.5299 60.2992 11.5643 21.3734 18.3713C 20.5322 18.5172 19.7332 17.9536 19.5869 17.1101C 19.4406 16.2666 20.0031 15.4637 20.8434 15.3168C 25.5875 14.4872 30.6754 13.6613 35.9023 12.911C 35.035 9.16858 33.8306 6.24072 33.1674 4.78662C 31.0071 5.19897 28.7653 5.6853 26.4508 6.24597C 20.2355 7.75171 15.1016 9.40417 12.8564 10.1603L 13.9218 16.5737C 14.4388 16.4763 14.9677 16.3777 15.5078 16.2776C 16.3459 16.1221 17.1521 16.6787 17.3066 17.5208C 17.4612 18.3627 16.9069 19.1714 16.0682 19.3265C 10.2617 20.4017 5.77417 21.3319 3.50806 21.8146L 5.64539 28.8955C 6.67139 27.9442 7.99963 26.9703 10.2629 26.9703C 12.9091 26.9703 14.2787 28.3016 15.3793 29.3715C 16.3258 30.2915 16.9513 30.8994 18.347 30.8994C 19.7427 30.8994 20.3678 30.2917 21.3142 29.3715C 22.4148 28.3016 23.7842 26.9703 26.4302 26.9703C 27.2831 26.9703 27.9745 27.6643 27.9745 28.5206C 27.9745 29.3768 27.283 30.0709 26.4302 30.0709C 25.0345 30.0709 24.4093 30.6786 23.463 31.5989C 22.3627 32.6687 20.9932 34 18.3473 34C 15.701 34 14.3315 32.6687 13.231 31.5989C 12.2844 30.6788 11.6591 30.0709 10.2631 30.0709C 8.86707 30.0709 8.24182 30.6786 7.29529 31.5989C 6.19495 32.6687 4.8252 34 2.17896 34C 1.32605 34 0.634644 33.306 0.634644 32.4497C 0.634644 31.5934 1.32617 30.8994 2.17896 30.8994C 2.4856 30.8994 2.75354 30.8684 2.99731 30.813L 0.0662842 21.1033C -0.0582275 20.6904 -0.0057373 20.244 0.21106 19.8716C 0.427979 19.499 0.789673 19.234 1.20923 19.1405L 1.2207 19.1379C 1.45496 19.0862 5.13782 18.2712 10.8872 17.1543L 9.90381 11.2344L 8.36694 11.8138C 8.18823 11.8811 8.00464 11.9132 7.82422 11.9132C 7.19922 11.9132 6.61108 11.5295 6.37842 10.9076C 6.07849 10.1062 6.48267 9.21252 7.28088 8.91125L 10.5753 7.66895L 10.5808 7.66724L 10.5863 7.66553L 10.5919 7.66321L 10.5975 7.66089C 11.6588 7.27917 36.793 -1.66565 53.8062 0.275391C 54.1001 0.308838 54.3782 0.42627 54.6074 0.61377L 66.0183 9.94568C 75.1981 9.59033 83.5409 9.95337 89.7966 11.4812L 89.7985 11.4818C 90.5328 11.66 91.2457 11.8575 91.917 12.0685C 92.7307 12.3243 93.1838 13.1941 92.9291 14.0112C 92.7223 14.6738 92.1129 15.0984 91.4559 15.0984C 91.303 15.0984 91.1477 15.0753 90.994 15.0271C 90.7526 14.9512 90.5038 14.8777 90.251 14.806L 90.2478 14.8123ZM 36.3058 4.23157C 37.0706 6.00171 38.166 8.89258 38.9728 12.481C 46.4453 11.4636 54.1179 10.6276 61.4122 10.178L 53.0117 3.30786C 48.4919 2.85217 42.8246 3.17126 36.3058 4.23157Z"/>
<path id="path3_stroke" d="M 90.2186 14.8679L 89.6724 14.5641L 89.6711 14.5665L 90.2186 14.8679ZM 90.2478 14.8123L 89.6909 14.5284L 89.6873 14.5357L 90.2478 14.8123ZM 79.4019 28.7651L 78.9821 28.302L 78.4701 28.7661L 78.9831 29.2291L 79.4019 28.7651ZM 80.0421 29.3716L 80.4841 28.9296L 80.4778 28.9235L 80.0421 29.3716ZM 80.0431 29.3726L 79.6011 29.8145L 79.6075 29.8208L 80.0431 29.3726ZM 85.9758 29.3716L 86.4115 29.8198L 86.4115 29.8197L 85.9758 29.3716ZM 88.1246 31.5988L 87.689 31.1506L 87.6889 31.1507L 88.1246 31.5988ZM 77.8933 31.5989L 78.3289 31.1507L 78.3289 31.1507L 77.8933 31.5989ZM 71.9601 31.5978L 71.5244 31.1495L 71.5181 31.1558L 71.9601 31.5978ZM 71.9591 31.5988L 72.3948 32.0469L 72.401 32.0407L 71.9591 31.5988ZM 61.7275 31.5988L 61.2856 32.0407L 61.2919 32.0469L 61.7275 31.5988ZM 61.7266 31.5978L 62.1685 31.1558L 62.1622 31.1496L 61.7266 31.5978ZM 55.7949 31.5979L 55.3593 31.1497L 55.353 31.156L 55.7949 31.5979ZM 55.7941 31.5988L 56.2298 32.0469L 56.236 32.0407L 55.7941 31.5988ZM 45.5631 31.5989L 45.9988 31.1508L 45.5631 31.5989ZM 39.6289 31.5989L 40.0645 32.047L 40.0646 32.047L 39.6289 31.5989ZM 29.692 31.8838L 30.1237 31.4319L 30.1237 31.4318L 29.692 31.8838ZM 29.6379 29.6921L 30.0915 30.1221L 30.0916 30.122L 29.6379 29.6921ZM 31.821 29.6378L 31.3894 30.0898L 31.3894 30.0898L 31.821 29.6378ZM 37.4801 29.3718L 37.9157 29.82L 37.9158 29.8199L 37.4801 29.3718ZM 47.7115 29.3718L 48.1535 28.9298L 48.1472 28.9237L 47.7115 29.3718ZM 47.7123 29.3726L 47.2703 29.8145L 47.2767 29.8208L 47.7123 29.3726ZM 53.6449 29.3718L 54.0806 29.82L 54.0806 29.8199L 53.6449 29.3718ZM 63.876 29.3718L 64.318 28.9298L 64.3117 28.9237L 63.876 29.3718ZM 63.8767 29.3726L 63.4347 29.8145L 63.4411 29.8208L 63.8767 29.3726ZM 69.8092 29.3726L 70.2448 29.8208L 70.2511 29.8145L 69.8092 29.3726ZM 69.8099 29.3718L 69.3742 28.9237L 69.368 28.9299L 69.8099 29.3718ZM 76.5364 27.1595L 76.387 27.7664L 76.697 27.8428L 76.9406 27.6363L 76.5364 27.1595ZM 87.1071 14.0748L 87.6448 14.3934L 88.1001 13.6248L 87.222 13.4605L 87.1071 14.0748ZM 21.3734 18.3713L 21.4802 18.9871L 21.4811 18.987L 21.3734 18.3713ZM 19.5869 17.1101L 20.2027 17.0033L 20.2027 17.0033L 19.5869 17.1101ZM 20.8434 15.3168L 20.7357 14.7011L 20.7357 14.7011L 20.8434 15.3168ZM 35.9023 12.911L 35.9911 13.5297L 36.6649 13.433L 36.5112 12.7699L 35.9023 12.911ZM 33.1674 4.78662L 33.736 4.52726L 33.5323 4.08067L 33.0502 4.17271L 33.1674 4.78662ZM 26.4508 6.24597L 26.3037 5.63854L 26.3036 5.63854L 26.4508 6.24597ZM 12.8564 10.1603L 12.657 9.56797L 12.1527 9.73779L 12.2399 10.2627L 12.8564 10.1603ZM 13.9218 16.5737L 13.3052 16.6761L 13.4098 17.3062L 14.0375 17.1879L 13.9218 16.5737ZM 15.5078 16.2776L 15.6217 16.8921L 15.6218 16.8921L 15.5078 16.2776ZM 17.3066 17.5208L 16.6919 17.6336L 16.6919 17.6336L 17.3066 17.5208ZM 16.0682 19.3265L 15.9545 18.712L 15.9544 18.712L 16.0682 19.3265ZM 3.50806 21.8146L 3.37786 21.2033L 2.71341 21.3448L 2.90972 21.9952L 3.50806 21.8146ZM 5.64539 28.8955L 5.04705 29.0761L 5.3363 30.0344L 6.07033 29.3538L 5.64539 28.8955ZM 15.3793 29.3715L 14.9436 29.8196L 14.9436 29.8196L 15.3793 29.3715ZM 21.3142 29.3715L 20.8786 28.9233L 20.8785 28.9234L 21.3142 29.3715ZM 23.463 31.5989L 23.8987 32.047L 23.8988 32.0469L 23.463 31.5989ZM 13.231 31.5989L 13.6666 31.1507L 13.6666 31.1507L 13.231 31.5989ZM 7.29529 31.5989L 7.73097 32.047L 7.73097 32.047L 7.29529 31.5989ZM 2.99731 30.813L 3.13587 31.4224L 3.7893 31.2739L 3.59565 30.6324L 2.99731 30.813ZM 0.0662842 21.1033L -0.532094 21.2837L -0.532049 21.2839L 0.0662842 21.1033ZM 0.21106 19.8716L -0.329059 19.5571L -0.329091 19.5572L 0.21106 19.8716ZM 1.20923 19.1405L 1.34519 19.7505L 1.3455 19.7505L 1.20923 19.1405ZM 1.2207 19.1379L 1.08586 18.5277L 1.08443 18.528L 1.2207 19.1379ZM 10.8872 17.1543L 11.0064 17.7678L 11.6034 17.6518L 11.5038 17.0519L 10.8872 17.1543ZM 9.90381 11.2344L 10.5204 11.132L 10.3956 10.381L 9.68331 10.6496L 9.90381 11.2344ZM 8.36694 11.8138L 8.5871 12.3988L 8.58744 12.3987L 8.36694 11.8138ZM 6.37842 10.9076L 6.9638 10.6886L 6.96377 10.6885L 6.37842 10.9076ZM 7.28088 8.91125L 7.06036 8.32645L 7.06019 8.32652L 7.28088 8.91125ZM 10.5753 7.66895L 10.3897 7.07216L 10.372 7.07764L 10.3548 7.08414L 10.5753 7.66895ZM 10.5863 7.66553L 10.772 8.26231L 10.7989 8.25394L 10.8249 8.24319L 10.5863 7.66553ZM 10.5975 7.66089L 10.386 7.07277L 10.3723 7.07768L 10.3589 7.08323L 10.5975 7.66089ZM 53.8062 0.275391L 53.7353 0.896362L 53.7355 0.896383L 53.8062 0.275391ZM 54.6074 0.61377L 54.2117 1.09756L 54.2118 1.09758L 54.6074 0.61377ZM 66.0183 9.94568L 65.6226 10.4295L 65.8059 10.5794L 66.0425 10.5702L 66.0183 9.94568ZM 89.7966 11.4812L 89.9943 10.8883L 89.9699 10.8801L 89.9449 10.874L 89.7966 11.4812ZM 89.7985 11.4818L 89.6008 12.0747L 89.6256 12.083L 89.6511 12.0892L 89.7985 11.4818ZM 91.917 12.0685L 92.1045 11.4723L 92.1044 11.4722L 91.917 12.0685ZM 92.9291 14.0112L 93.5257 14.1974L 93.5257 14.1973L 92.9291 14.0112ZM 90.994 15.0271L 90.8065 15.6233L 90.8069 15.6234L 90.994 15.0271ZM 90.251 14.806L 90.4214 14.2047L 89.9274 14.0647L 89.6942 14.5222L 90.251 14.806ZM 38.9728 12.481L 38.363 12.6181L 38.4888 13.1776L 39.0571 13.1002L 38.9728 12.481ZM 36.3058 4.23157L 36.2054 3.61467L 35.414 3.7434L 35.732 4.47945L 36.3058 4.23157ZM 61.4122 10.178L 61.4507 10.8018L 63.0423 10.7037L 61.8079 9.69417L 61.4122 10.178ZM 53.0117 3.30786L 53.4074 2.82405L 53.2617 2.70489L 53.0744 2.68601L 53.0117 3.30786ZM 90.7648 15.1718C 90.7789 15.1463 90.7957 15.1142 90.8083 15.0888L 89.6873 14.5357C 89.6814 14.5479 89.6789 14.5527 89.6724 14.5641L 90.7648 15.1718ZM 79.8216 29.2282C 86.1298 23.4996 90.5677 15.5299 90.7662 15.1693L 89.6711 14.5665C 89.4738 14.9249 85.1507 22.7226 78.9821 28.302L 79.8216 29.2282ZM 80.4778 28.9235C 80.2755 28.7268 80.0554 28.5132 79.8206 28.3011L 78.9831 29.2291C 79.2011 29.4257 79.4044 29.6233 79.6064 29.8197L 80.4778 28.9235ZM 80.485 28.9306L 80.4841 28.9296L 79.6002 29.8135L 79.6012 29.8145L 80.485 28.9306ZM 83.009 30.2744C 82.4025 30.2811 82.0581 30.1754 81.6771 29.9435C 81.2889 29.7178 80.9517 29.3841 80.4787 28.9244L 79.6075 29.8208C 80.0805 30.2805 80.5288 30.7101 81.0384 31.018C 81.5551 31.3197 82.2206 31.5178 83.009 31.5244L 83.009 30.2744ZM 85.5402 28.9234C 85.067 29.3834 84.7296 29.7174 84.3413 29.9433C 83.9601 30.1753 83.6157 30.2811 83.009 30.2744L 83.009 31.5244C 83.7977 31.5178 84.4634 31.3195 84.9802 31.0177C 85.4899 30.7096 85.9383 30.2797 86.4115 29.8198L 85.5402 28.9234ZM 91.0913 26.3453C 88.1809 26.3453 86.6545 27.8399 85.5401 28.9235L 86.4115 29.8197C 87.4978 28.7634 88.71 27.5953 91.0913 27.5953L 91.0913 26.3453ZM 93.2607 28.5206C 93.2607 27.3214 92.292 26.3453 91.0913 26.3453L 91.0913 27.5953C 91.5971 27.5953 92.0107 28.0072 92.0107 28.5206L 93.2607 28.5206ZM 91.0913 30.6959C 92.2918 30.6959 93.2607 29.7198 93.2607 28.5206L 92.0107 28.5206C 92.0107 29.0339 91.5969 29.4459 91.0913 29.4459L 91.0913 30.6959ZM 88.5603 32.0469C 89.0334 31.5869 89.3708 31.2529 89.7591 31.0271C 90.1403 30.795 90.4847 30.6893 91.0913 30.6959L 91.0913 29.4459C 90.3027 29.4526 89.637 29.6508 89.1202 29.9527C 88.6105 30.2607 88.1621 30.6907 87.689 31.1506L 88.5603 32.0469ZM 83.009 34.625C 85.9196 34.625 87.4459 33.1305 88.5603 32.0468L 87.6889 31.1507C 86.6027 32.2069 85.3905 33.375 83.009 33.375L 83.009 34.625ZM 77.4577 32.047C 78.5723 33.1305 80.0985 34.625 83.009 34.625L 83.009 33.375C 80.6276 33.375 79.4155 32.2069 78.3289 31.1507L 77.4577 32.047ZM 74.926 30.6959C 75.5328 30.6893 75.8774 30.795 76.2586 31.0271C 76.647 31.253 76.9844 31.587 77.4577 32.047L 78.3289 31.1507C 77.8557 30.6907 77.4072 30.2608 76.8974 29.9527C 76.3806 29.6508 75.7148 29.4526 74.926 29.4459L 74.926 30.6959ZM 72.3957 32.046C 72.8687 31.5863 73.2059 31.2525 73.5941 31.0268C 73.9751 30.7949 74.3195 30.6893 74.926 30.6959L 74.926 29.4459C 74.1376 29.4526 73.4721 29.6506 72.9554 29.9523C 72.4458 30.2602 71.9975 30.6899 71.5245 31.1496L 72.3957 32.046ZM 72.401 32.0407L 72.402 32.0397L 71.5181 31.1558L 71.5172 31.1568L 72.401 32.0407ZM 66.8434 34.625C 69.7538 34.625 71.2803 33.1305 72.3948 32.0469L 71.5234 31.1506C 70.437 32.2069 69.2247 33.375 66.8434 33.375L 66.8434 34.625ZM 61.2919 32.0469C 62.4064 33.1304 63.9328 34.625 66.8434 34.625L 66.8434 33.375C 64.4619 33.375 63.2496 32.2068 62.1632 31.1506L 61.2919 32.0469ZM 61.2846 32.0397L 61.2856 32.0407L 62.1695 31.1568L 62.1685 31.1558L 61.2846 32.0397ZM 58.7606 30.6959C 59.3671 30.6893 59.7115 30.7949 60.0926 31.0268C 60.4807 31.2525 60.8179 31.5863 61.291 32.046L 62.1622 31.1496C 61.6891 30.6899 61.2409 30.2602 60.7312 29.9523C 60.2146 29.6506 59.549 29.4526 58.7606 29.4459L 58.7606 30.6959ZM 56.2305 32.0461C 56.7035 31.5864 57.0407 31.2526 57.4288 31.0269C 57.8099 30.7949 58.1542 30.6893 58.7606 30.6959L 58.7606 29.4459C 57.9722 29.4526 57.3067 29.6507 56.7901 29.9524C 56.2805 30.2603 55.8323 30.69 55.3593 31.1497L 56.2305 32.0461ZM 56.236 32.0407L 56.2369 32.0398L 55.353 31.156L 55.3521 31.1568L 56.236 32.0407ZM 50.6788 34.625C 53.5893 34.625 55.1154 33.1305 56.2298 32.0468L 55.3584 31.1507C 54.2721 32.2069 53.0601 33.375 50.6788 33.375L 50.6788 34.625ZM 45.1274 32.047C 46.2419 33.1305 47.7684 34.625 50.6788 34.625L 50.6788 33.375C 48.2975 33.375 47.085 32.2069 45.9988 31.1508L 45.1274 32.047ZM 42.5961 30.6959C 43.2028 30.6893 43.5474 30.795 43.9286 31.0271C 44.3169 31.2529 44.6543 31.587 45.1274 32.047L 45.9988 31.1508C 45.5257 30.6907 45.0773 30.2608 44.5675 29.9527C 44.0506 29.6508 43.3848 29.4526 42.5961 29.4459L 42.5961 30.6959ZM 40.0646 32.047C 40.5378 31.5868 40.8752 31.2528 41.2634 31.027C 41.6446 30.795 41.9892 30.6893 42.5961 30.6959L 42.5961 29.4459C 41.8073 29.4526 41.1415 29.6507 40.6246 29.9526C 40.1148 30.2607 39.6664 30.6906 39.1932 31.1508L 40.0646 32.047ZM 34.5132 34.625C 37.4237 34.625 38.9499 33.1305 40.0645 32.047L 39.1933 31.1507C 38.1067 32.2069 36.8946 33.375 34.5132 33.375L 34.5132 34.625ZM 29.2603 32.3357C 30.3768 33.4022 31.8707 34.625 34.5132 34.625L 34.5132 33.375C 32.3473 33.375 31.1511 32.4132 30.1237 31.4319L 29.2603 32.3357ZM 29.1844 29.2621C 28.3598 30.1319 28.3933 31.5077 29.2604 32.3358L 30.1237 31.4318C 29.7549 31.0797 29.7403 30.4926 30.0915 30.1221L 29.1844 29.2621ZM 32.2527 29.1859C 31.3847 28.3568 30.0104 28.3905 29.1843 29.2622L 30.0916 30.122C 30.4413 29.753 31.0218 29.7387 31.3894 30.0898L 32.2527 29.1859ZM 34.5132 30.2747C 33.9598 30.2802 33.6283 30.1881 33.2747 29.9946C 32.9202 29.8099 32.6313 29.5475 32.2527 29.1858L 31.3894 30.0898C 31.7843 30.4668 32.2053 30.8353 32.6853 31.0969C 33.1662 31.3496 33.7939 31.5191 34.5132 31.5247L 34.5132 30.2747ZM 37.0445 28.9237C 36.5713 29.3836 36.2339 29.7177 35.8456 29.9435C 35.4644 30.1756 35.1199 30.2813 34.5132 30.2747L 34.5132 31.5247C 35.3019 31.518 35.9676 31.3198 36.4844 31.0179C 36.9942 30.7098 37.4425 30.2799 37.9157 29.82L 37.0445 28.9237ZM 42.5958 26.3455C 39.6855 26.3455 38.1588 27.8399 37.0444 28.9238L 37.9158 29.8199C 39.002 28.7636 40.2146 27.5955 42.5958 27.5955L 42.5958 26.3455ZM 48.1472 28.9237C 47.0326 27.8403 45.5062 26.3455 42.5958 26.3455L 42.5958 27.5955C 44.977 27.5955 46.1893 28.7637 47.2759 29.82L 48.1472 28.9237ZM 48.1542 28.9306L 48.1535 28.9299L 47.2696 29.8138L 47.2703 29.8145L 48.1542 28.9306ZM 50.6785 30.2747C 50.072 30.2813 49.7276 30.1756 49.3464 29.9437C 48.9583 29.718 48.621 29.3841 48.1479 28.9244L 47.2767 29.8208C 47.7498 30.2805 48.1981 30.7103 48.7078 31.0182C 49.2245 31.3199 49.89 31.518 50.6785 31.5247L 50.6785 30.2747ZM 53.2092 28.9237C 52.7361 29.3837 52.3987 29.7177 52.0105 29.9435C 51.6294 30.1756 51.285 30.2813 50.6785 30.2747L 50.6785 31.5247C 51.467 31.518 52.1327 31.3198 52.6494 31.0179C 53.1591 30.7098 53.6074 30.2799 54.0806 29.82L 53.2092 28.9237ZM 58.7603 26.3455C 55.8499 26.3455 54.3236 27.8403 53.2092 28.9237L 54.0806 29.8199C 55.1669 28.7637 56.3791 27.5955 58.7603 27.5955L 58.7603 26.3455ZM 64.3117 28.9237C 63.1973 27.8402 61.6708 26.3455 58.7603 26.3455L 58.7603 27.5955C 61.1417 27.5955 62.354 28.7638 63.4403 29.8199L 64.3117 28.9237ZM 64.3186 28.9306L 64.3179 28.9299L 63.434 29.8138L 63.4348 29.8145L 64.3186 28.9306ZM 66.843 30.2747C 66.2365 30.2813 65.892 30.1756 65.5109 29.9437C 65.1227 29.718 64.7854 29.3841 64.3123 28.9244L 63.4411 29.8208C 63.9142 30.2805 64.3625 30.7103 64.8722 31.0182C 65.3889 31.3199 66.0545 31.518 66.843 31.5247L 66.843 30.2747ZM 69.3736 28.9244C 68.9005 29.3841 68.5632 29.718 68.175 29.9437C 67.7939 30.1756 67.4495 30.2813 66.843 30.2747L 66.843 31.5247C 67.6314 31.518 68.297 31.3199 68.8137 31.0182C 69.3234 30.7103 69.7717 30.2805 70.2448 29.8208L 69.3736 28.9244ZM 69.368 28.9299L 69.3673 28.9306L 70.2511 29.8145L 70.2519 29.8138L 69.368 28.9299ZM 74.9257 26.3455C 72.0151 26.3455 70.4887 27.84 69.3742 28.9238L 70.2457 29.8199C 71.3319 28.7636 72.5442 27.5955 74.9257 27.5955L 74.9257 26.3455ZM 76.6858 26.5527C 76.1726 26.4273 75.5667 26.3468 74.9257 26.3455L 74.9257 27.5955C 75.4838 27.5941 75.9402 27.6555 76.387 27.7664L 76.6858 26.5527ZM 86.5693 13.7563C 85.3056 15.8896 81.271 22.3356 76.1322 26.6828L 76.9406 27.6363C 82.2158 23.1541 86.3729 16.5403 87.6448 14.3934L 86.5693 13.7563ZM 21.4811 18.987C 60.3758 12.1854 78.8397 13.1642 86.9921 14.6892L 87.222 13.4605C 78.8564 11.8956 60.2226 10.9432 21.2658 17.7557L 21.4811 18.987ZM 18.9711 17.2169C 19.1761 18.3995 20.2979 19.1922 21.4802 18.9871L 21.2666 17.7555C 20.7666 17.8422 20.2902 17.5078 20.2027 17.0033L 18.9711 17.2169ZM 20.7357 14.7011C 19.5536 14.9079 18.7662 16.0357 18.9711 17.217L 20.2027 17.0033C 20.115 16.4975 20.4525 16.0196 20.9511 15.9324L 20.7357 14.7011ZM 35.8135 12.2924C 30.5809 13.0434 25.4836 13.8709 20.7357 14.7011L 20.951 15.9324C 25.6914 15.1035 30.7699 14.2791 35.9911 13.5297L 35.8135 12.2924ZM 32.5987 5.04598C 33.2571 6.48933 34.4396 9.35865 35.2935 13.0521L 36.5112 12.7699C 35.6304 8.97851 34.404 5.99211 33.736 4.52726L 32.5987 5.04598ZM 26.598 6.8534C 28.9051 6.29446 31.1319 5.81138 33.2845 5.40054L 33.0502 4.17271C 30.8822 4.58657 28.6254 5.07615 26.3037 5.63854L 26.598 6.8534ZM 13.0559 10.7526C 15.2971 9.99782 20.4049 8.3533 26.598 6.8534L 26.3036 5.63854C 20.066 7.15012 14.9061 8.81053 12.657 9.56797L 13.0559 10.7526ZM 14.5383 16.4713L 13.473 10.0579L 12.2399 10.2627L 13.3052 16.6761L 14.5383 16.4713ZM 15.3939 15.6631C 14.8534 15.7632 14.3237 15.862 13.806 15.9595L 14.0375 17.1879C 14.554 17.0906 15.0819 16.9922 15.6217 16.8921L 15.3939 15.6631ZM 17.9214 17.4079C 17.7048 16.2279 16.5737 15.4441 15.3938 15.6631L 15.6218 16.8921C 16.1182 16.8 16.5994 17.1295 16.6919 17.6336L 17.9214 17.4079ZM 16.1819 19.9411C 17.3621 19.7228 18.1377 18.5866 17.9214 17.4079L 16.6919 17.6336C 16.7846 18.1388 16.4516 18.62 15.9545 18.712L 16.1819 19.9411ZM 3.63826 22.4259C 5.9027 21.9436 10.3821 21.015 16.182 19.9411L 15.9544 18.712C 10.1414 19.7884 5.64564 20.7203 3.37786 21.2033L 3.63826 22.4259ZM 6.24372 28.7149L 4.10639 21.634L 2.90972 21.9952L 5.04705 29.0761L 6.24372 28.7149ZM 10.2629 26.3453C 7.77791 26.3453 6.30432 27.4322 5.22044 28.4372L 6.07033 29.3538C 7.03845 28.4562 8.22136 27.5953 10.2629 27.5953L 10.2629 26.3453ZM 15.8149 28.9233C 14.7003 27.8398 13.1736 26.3453 10.2629 26.3453L 10.2629 27.5953C 12.6445 27.5953 13.8571 28.7635 14.9436 29.8196L 15.8149 28.9233ZM 18.347 30.2744C 17.7401 30.2811 17.3954 30.1753 17.014 29.9432C 16.6256 29.7173 16.2882 29.3833 15.8149 28.9233L 14.9436 29.8196C 15.4169 30.2797 15.8654 30.7096 16.3754 31.0177C 16.8923 31.3196 17.5582 31.5178 18.347 31.5244L 18.347 30.2744ZM 20.8785 28.9234C 20.4053 29.3835 20.068 29.7175 19.6797 29.9433C 19.2985 30.1754 18.9539 30.2811 18.347 30.2744L 18.347 31.5244C 19.1358 31.5178 19.8016 31.3196 20.3185 31.0178C 20.8283 30.7097 21.2767 30.2797 21.7499 29.8195L 20.8785 28.9234ZM 26.4302 26.3453C 23.5196 26.3453 21.9932 27.8398 20.8786 28.9233L 21.7498 29.8196C 22.8364 28.7634 24.0487 27.5953 26.4302 27.5953L 26.4302 26.3453ZM 28.5995 28.5206C 28.5995 27.3214 27.6305 26.3453 26.4302 26.3453L 26.4302 27.5953C 26.9357 27.5953 27.3495 28.0072 27.3495 28.5206L 28.5995 28.5206ZM 26.4302 30.6959C 27.6304 30.6959 28.5995 29.7198 28.5995 28.5206L 27.3495 28.5206C 27.3495 29.0339 26.9355 29.4459 26.4302 29.4459L 26.4302 30.6959ZM 23.8988 32.0469C 24.3719 31.5868 24.7092 31.2528 25.0975 31.027C 25.4787 30.795 25.8233 30.6893 26.4302 30.6959L 26.4302 29.4459C 25.6414 29.4526 24.9756 29.6507 24.4587 29.9526C 23.9489 30.2607 23.5004 30.6907 23.0273 31.1508L 23.8988 32.0469ZM 18.3473 34.625C 21.2577 34.625 22.7843 33.1305 23.8987 32.047L 23.0273 31.1508C 21.9411 32.2069 20.7286 33.375 18.3473 33.375L 18.3473 34.625ZM 12.7953 32.047C 13.91 33.1305 15.4365 34.625 18.3473 34.625L 18.3473 33.375C 15.9656 33.375 14.7531 32.2069 13.6666 31.1507L 12.7953 32.047ZM 10.2631 30.6959C 10.8701 30.6893 11.2149 30.795 11.5962 31.0271C 11.9846 31.253 12.3221 31.587 12.7953 32.047L 13.6666 31.1507C 13.1933 30.6907 12.7448 30.2607 12.2349 29.9526C 11.7179 29.6508 11.052 29.4526 10.2631 29.4459L 10.2631 30.6959ZM 7.73097 32.047C 8.20422 31.5869 8.54161 31.2529 8.92996 31.0271C 9.31127 30.795 9.656 30.6893 10.2631 30.6959L 10.2631 29.4459C 9.47412 29.4526 8.80824 29.6507 8.29129 29.9525C 7.78138 30.2606 7.33289 30.6906 6.8596 31.1508L 7.73097 32.047ZM 2.17896 34.625C 5.0897 34.625 6.61649 33.1306 7.73097 32.047L 6.8596 31.1508C 5.7734 32.2068 4.56069 33.375 2.17896 33.375L 2.17896 34.625ZM 0.00964355 32.4497C 0.00964355 33.649 0.978626 34.625 2.17896 34.625L 2.17896 33.375C 1.67347 33.375 1.25964 32.9631 1.25964 32.4497L 0.00964355 32.4497ZM 2.17896 30.2744C 0.97878 30.2744 0.00964355 31.2504 0.00964355 32.4497L 1.25964 32.4497C 1.25964 31.9363 1.67356 31.5244 2.17896 31.5244L 2.17896 30.2744ZM 2.85876 30.2035C 2.64819 30.2524 2.44961 30.2754 2.17896 30.2744L 2.17896 31.5244C 2.52158 31.5234 2.85889 31.4845 3.13587 31.4224L 2.85876 30.2035ZM -0.532049 21.2839L 2.39898 30.9936L 3.59565 30.6324L 0.664617 20.9227L -0.532049 21.2839ZM -0.329091 19.5572C -0.63311 20.0794 -0.706614 20.7051 -0.532094 21.2837L 0.664662 20.9228C 0.590159 20.6758 0.621635 20.4086 0.75121 20.186L -0.329091 19.5572ZM 1.07327 18.5305C 0.482992 18.662 -0.0248555 19.0346 -0.329059 19.5571L 0.751178 20.1861C 0.880813 19.9634 1.09635 19.806 1.34519 19.7505L 1.07327 18.5305ZM 1.08443 18.528L 1.07296 18.5305L 1.3455 19.7505L 1.35697 19.7479L 1.08443 18.528ZM 10.768 16.5408C 5.01069 17.6593 1.32002 18.4759 1.08586 18.5277L 1.35554 19.7482C 1.58989 19.6964 5.26494 18.8832 11.0064 17.7678L 10.768 16.5408ZM 9.28726 11.3368L 10.2707 17.2567L 11.5038 17.0519L 10.5204 11.132L 9.28726 11.3368ZM 8.58744 12.3987L 10.1243 11.8192L 9.68331 10.6496L 8.14644 11.229L 8.58744 12.3987ZM 7.82422 12.5382C 8.05867 12.5359 8.35286 12.484 8.5871 12.3988L 8.14679 11.2289C 8.02361 11.2782 7.95061 11.2905 7.82422 11.2882L 7.82422 12.5382ZM 5.79304 11.1266C 6.11958 11.9995 6.9458 12.5382 7.82422 12.5382L 7.82422 11.2882C 7.45264 11.2882 7.10259 11.0596 6.9638 10.6886L 5.79304 11.1266ZM 7.06019 8.32652C 5.93826 8.74996 5.37292 10.004 5.79307 11.1267L 6.96377 10.6885C 6.78407 10.2084 7.02707 9.67509 7.50158 9.49599L 7.06019 8.32652ZM 10.3548 7.08414L 7.06036 8.32645L 7.50141 9.49606L 10.7958 8.25375L 10.3548 7.08414ZM 10.3951 7.07045L 10.3897 7.07216L 10.761 8.26573L 10.7665 8.26402L 10.3951 7.07045ZM 10.4006 7.06874L 10.3951 7.07045L 10.7665 8.26402L 10.772 8.26231L 10.4006 7.06874ZM 10.3533 7.08554L 10.3477 7.08786L 10.8249 8.24319L 10.8305 8.24087L 10.3533 7.08554ZM 10.3589 7.08323L 10.3533 7.08554L 10.8305 8.24087L 10.8361 8.23855L 10.3589 7.08323ZM 53.877 -0.345581C 45.257 -1.32904 34.6316 0.444545 26.0746 2.48922C 17.4993 4.53919 10.9176 6.88158 10.386 7.07277L 10.8091 8.249C 11.3388 8.05849 17.8547 5.7376 26.3651 3.70499C 34.8938 1.66709 45.3422 -0.0612151 53.7353 0.896362L 53.877 -0.345581ZM 55.0031 0.129977C 54.7009 -0.108971 54.2586 -0.295724 53.8768 -0.345602L 53.7355 0.896383C 53.9416 0.9134 54.0555 0.96151 54.2117 1.09756L 55.0031 0.129977ZM 66.414 9.46187L 55.0031 0.129957L 54.2118 1.09758L 65.6226 10.4295L 66.414 9.46187ZM 89.9449 10.874C 83.629 9.33462 75.1996 8.96533 65.9941 9.32115L 66.0425 10.5702C 75.1966 10.2153 83.4527 10.5721 89.6483 12.0884L 89.9449 10.874ZM 89.9961 10.8889L 89.9943 10.8883L 89.599 12.0741L 89.6008 12.0747L 89.9961 10.8889ZM 92.1044 11.4722C 91.4229 11.2582 90.69 11.0551 89.9459 10.8744L 89.6511 12.0892C 90.3757 12.265 91.0686 12.4569 91.7296 12.6647L 92.1044 11.4722ZM 93.5257 14.1973C 93.8825 13.053 93.2488 11.8321 92.1045 11.4723L 91.7295 12.6647C 92.2126 12.8166 92.4852 13.3351 92.3324 13.8252L 93.5257 14.1973ZM 91.4559 15.7234C 92.3799 15.7234 93.2355 15.1272 93.5257 14.1974L 92.3325 13.825C 92.2091 14.2205 91.8459 14.4734 91.4559 14.4734L 91.4559 15.7234ZM 90.8069 15.6234C 91.0078 15.6845 91.2569 15.7217 91.4559 15.7234L 91.4559 14.4734C 91.349 14.4751 91.2876 14.4662 91.1811 14.4308L 90.8069 15.6234ZM 90.0805 15.4073C 90.33 15.478 90.5703 15.549 90.8065 15.6233L 91.1815 14.4309C 90.9348 14.3533 90.6775 14.2773 90.4214 14.2047L 90.0805 15.4073ZM 90.8046 15.0961L 90.8078 15.0899L 89.6942 14.5222L 89.691 14.5284L 90.8046 15.0961ZM 39.5826 12.3439C 38.7646 8.71285 37.6498 5.76697 36.8795 3.98369L 35.732 4.47945C 36.4913 6.23644 37.5674 9.07231 38.363 12.6181L 39.5826 12.3439ZM 61.3738 9.55416C 54.0648 10.0048 46.3693 10.8433 38.8885 11.8617L 39.0571 13.1002C 46.5213 12.084 54.171 11.2503 61.4507 10.8018L 61.3738 9.55416ZM 52.6161 3.79167L 61.0166 10.6618L 61.8079 9.69417L 53.4074 2.82405L 52.6161 3.79167ZM 36.4061 4.84846C 42.8924 3.79257 48.4781 3.47702 52.949 3.92971L 53.0744 2.68601C 48.5058 2.22733 42.7568 2.54996 36.2054 3.61467L 36.4061 4.84846Z"/>
<path id="path4_fill" d="M 5.53109 0.0941879L 1.52275 0.000229727C 1.5136 0.000229727 1.50445 0 1.4953 0C 0.681703 0 0.0150243 0.851597 0.000244362 1.91799C -0.0145355 2.99655 0.642994 3.88629 1.46891 3.90581L 5.47725 3.99977C 5.4864 3.99977 5.49555 4 5.5047 4C 6.3183 4 6.98498 3.1484 6.99976 2.08201C 7.01454 1.00345 6.35701 0.113715 5.53109 0.0941879Z"/>
<path id="path5_stroke" d="M 5.53109 0.0941879L 5.54291 -0.405672L 5.54281 -0.405675L 5.53109 0.0941879ZM 1.52275 0.000229727L 1.53447 -0.49977L 1.52275 -0.49977L 1.52275 0.000229727ZM 0.000244362 1.91799L -0.499708 1.91106L -0.499709 1.91114L 0.000244362 1.91799ZM 1.46891 3.90581L 1.45709 4.40567L 1.45719 4.40567L 1.46891 3.90581ZM 5.47725 3.99977L 5.46553 4.49977L 5.47725 4.49977L 5.47725 3.99977ZM 6.99976 2.08201L 7.49971 2.08894L 7.49971 2.08886L 6.99976 2.08201ZM 5.54281 -0.405675L 1.53447 -0.499633L 1.51103 0.500092L 5.51937 0.594051L 5.54281 -0.405675ZM 1.52275 -0.49977C 1.51988 -0.499731 1.51073 -0.499961 1.4953 -0.5L 1.4953 0.5C 1.49817 0.499961 1.50732 0.50019 1.52275 0.50023L 1.52275 -0.49977ZM 1.4953 -0.5C 0.295236 -0.5 -0.482925 0.700186 -0.499708 1.91106L 0.500196 1.92492C 0.512974 1.00301 1.06817 0.5 1.4953 0.5L 1.4953 -0.5ZM -0.499709 1.91114C -0.516464 3.13388 0.243154 4.37697 1.45709 4.40567L 1.48073 3.40595C 1.04283 3.3956 0.487393 2.85922 0.500197 1.92484L -0.499709 1.91114ZM 1.45719 4.40567L 5.46553 4.49963L 5.48897 3.49991L 1.48063 3.40595L 1.45719 4.40567ZM 5.47725 4.49977C 5.48012 4.49973 5.48927 4.49996 5.5047 4.5L 5.5047 3.5C 5.50183 3.50004 5.49268 3.49981 5.47725 3.49977L 5.47725 4.49977ZM 5.5047 4.5C 6.70476 4.5 7.48293 3.29981 7.49971 2.08894L 6.4998 2.07508C 6.48703 2.99699 5.93183 3.5 5.5047 3.5L 5.5047 4.5ZM 7.49971 2.08886C 7.51646 0.866115 6.75685 -0.376972 5.54291 -0.405672L 5.51927 0.594048C 5.95717 0.604401 6.51261 1.14078 6.4998 2.07516L 7.49971 2.08886Z"/>
<path id="path6_fill" d="M 28.4563 0C 25.8113 0 24.4426 1.51504 23.3426 2.73272C 22.3966 3.77962 21.7716 4.47147 20.377 4.47147C 18.9821 4.47147 18.3573 3.77962 17.4112 2.73272C 16.311 1.51525 14.9421 0 12.2971 0C 9.65217 0 8.28329 1.51504 7.18332 2.73252C 6.23714 3.77983 5.61234 4.47147 4.2175 4.47147C 3.29837 4.47147 2.76582 4.15314 2.40467 3.87591C 1.69708 3.33285 0.738007 3.54783 0.262466 4.35651C -0.212893 5.16518 -0.0247825 6.26126 0.68299 6.80473C 1.73049 7.60905 2.88656 8 4.2175 8C 6.86247 8 8.23136 6.48496 9.33133 5.26748C 10.2775 4.22017 10.9023 3.52853 12.2971 3.52853C 13.6922 3.52853 14.3171 4.22038 15.2631 5.26748C 16.3633 6.48496 17.732 8 20.377 8C 23.022 8 24.3907 6.48496 25.4906 5.26728C 26.4366 4.22038 27.0616 3.52853 28.4563 3.52853C 29.3089 3.52853 30 2.73874 30 1.76427C 29.9998 0.78979 29.3089 0 28.4563 0Z"/>
<path id="path7_stroke" d="M 23.3426 2.73272L 23.9918 3.31937L 23.9919 3.31926L 23.3426 2.73272ZM 17.4112 2.73272L 16.762 3.31937L 16.762 3.31943L 17.4112 2.73272ZM 7.18332 2.73252L 6.53406 2.14592L 6.53404 2.14594L 7.18332 2.73252ZM 2.40467 3.87591L 2.93748 3.18183L 2.9374 3.18177L 2.40467 3.87591ZM 0.262466 4.35651L -0.491787 3.91297L -0.491861 3.91309L 0.262466 4.35651ZM 0.68299 6.80473L 0.150089 7.49874L 0.150097 7.49874L 0.68299 6.80473ZM 9.33133 5.26748L 9.98058 5.85408L 9.9806 5.85406L 9.33133 5.26748ZM 15.2631 5.26748L 14.6139 5.85406L 14.6139 5.85413L 15.2631 5.26748ZM 25.4906 5.26728L 24.8414 4.68063L 24.8413 4.68074L 25.4906 5.26728ZM 30 1.76427L 30.875 1.76427L 30.875 1.7641L 30 1.76427ZM 28.4563 -0.875C 25.3955 -0.875 23.7959 0.92558 22.6933 2.14619L 23.9919 3.31926C 25.0892 2.10451 26.2271 0.875 28.4563 0.875L 28.4563 -0.875ZM 22.6934 2.14608C 22.2204 2.66955 21.9028 3.03047 21.5375 3.27009C 21.1888 3.51545 20.9306 3.60835 20.377 3.59647L 20.377 5.34647C 21.218 5.33458 21.9697 5.08156 22.5185 4.71928C 23.0509 4.35124 23.5188 3.8428 23.9918 3.31937L 22.6934 2.14608ZM 20.377 3.59647C 19.8233 3.60835 19.5651 3.51545 19.2163 3.27009C 18.851 3.03047 18.5335 2.66952 18.0603 2.14602L 16.762 3.31943C 17.235 3.84283 17.703 4.35124 18.2353 4.71928C 18.7842 5.08156 19.5358 5.33458 20.377 5.34647L 20.377 3.59647ZM 18.0604 2.14608C 16.9577 0.925803 15.3579 -0.875 12.2971 -0.875L 12.2971 0.875C 14.5264 0.875 15.6643 2.1047 16.762 3.31937L 18.0604 2.14608ZM 12.2971 -0.875C 9.23642 -0.875 7.63666 0.925537 6.53406 2.14592L 7.83257 3.31911C 8.92991 2.10455 10.0679 0.875 12.2971 0.875L 12.2971 -0.875ZM 6.53404 2.14594C 6.06095 2.6696 5.74343 3.03054 5.37816 3.27014C 5.02941 3.51549 4.77123 3.60835 4.2175 3.59647L 4.2175 5.34647C 5.05861 5.33459 5.81025 5.08163 6.35915 4.71933C 6.89154 4.35128 7.3595 3.84274 7.83259 3.31909L 6.53404 2.14594ZM 4.2175 3.59647C 3.54195 3.59647 3.19179 3.37705 2.93748 3.18183L 1.87186 4.56998C 2.33985 4.92924 3.05479 5.34647 4.2175 5.34647L 4.2175 3.59647ZM 2.9374 3.18177C 1.77358 2.28857 0.224693 2.69457 -0.491787 3.91297L 1.01672 4.80004C 1.25132 4.4011 1.62058 4.37713 1.87194 4.57004L 2.9374 3.18177ZM -0.491861 3.91309C -1.17326 5.07228 -0.935009 6.66553 0.150089 7.49874L 1.21589 6.11073C 0.885444 5.85699 0.747478 5.25808 1.01679 4.79992L -0.491861 3.91309ZM 0.150097 7.49874C 1.31833 8.3809 2.74453 8.86339 4.2175 8.875L 4.2175 7.125C 3.0286 7.13661 2.14264 6.8372 1.21588 6.11072L 0.150097 7.49874ZM 4.2175 8.875C 7.27822 8.875 8.87798 7.07446 9.98058 5.85408L 8.68207 4.68089C 7.58473 5.89545 6.44673 7.125 4.2175 7.125L 4.2175 8.875ZM 9.9806 5.85406C 10.4537 5.3304 10.7712 4.96946 11.1365 4.72986C 11.4852 4.48451 11.7434 4.39165 12.2971 4.40353L 12.2971 2.65353C 11.456 2.66541 10.7044 2.91837 10.1555 3.28067C 9.62311 3.64872 9.15514 4.15726 8.68206 4.68091L 9.9806 5.85406ZM 12.2971 4.40353C 12.851 4.39165 13.1092 4.48456 13.458 4.72994C 13.8234 4.96956 14.1409 5.3305 14.6139 5.85406L 15.9124 4.68091C 15.4394 4.15736 14.9715 3.64882 14.439 3.28075C 13.8901 2.91843 13.1384 2.66542 12.2971 2.65353L 12.2971 4.40353ZM 14.6139 5.85413C 15.7166 7.07443 17.3162 8.875 20.377 8.875L 20.377 7.125C 18.1478 7.125 17.01 5.89548 15.9124 4.68084L 14.6139 5.85413ZM 20.377 8.875C 23.4377 8.875 25.0373 7.07442 26.1399 5.85381L 24.8413 4.68074C 23.744 5.89549 22.6062 7.125 20.377 7.125L 20.377 8.875ZM 26.1398 5.85392C 26.6129 5.33045 26.9304 4.96953 27.2957 4.72991C 27.6445 4.48455 27.9027 4.39165 28.4563 4.40353L 28.4563 2.65353C 27.6152 2.66542 26.8636 2.91844 26.3147 3.28072C 25.7823 3.64876 25.3144 4.1572 24.8414 4.68063L 26.1398 5.85392ZM 28.4563 4.40353C 29.8983 4.40353 30.875 3.10859 30.875 1.76427L 29.125 1.76427C 29.125 2.3689 28.7196 2.65353 28.4563 2.65353L 28.4563 4.40353ZM 30.875 1.7641C 30.8748 0.42007 29.8984 -0.875 28.4563 -0.875L 28.4563 0.875C 28.7195 0.875 29.1249 1.15951 29.125 1.76443L 30.875 1.7641Z"/>
<path id="path8_stroke" d="M 0 7.99206L -0.58885 7.34485L -2.01355 8.64108L -0.100052 8.86132L 0 7.99206ZM 23 16C 23.8227 15.7021 23.8227 15.702 23.8226 15.7018C 23.8226 15.7016 23.8225 15.7014 23.8224 15.7011C 23.8222 15.7006 23.8219 15.6997 23.8215 15.6987C 23.8208 15.6968 23.8197 15.6937 23.8183 15.6898C 23.8156 15.6824 23.8114 15.6709 23.806 15.6562C 23.7954 15.6273 23.7794 15.5836 23.7586 15.5275C 23.7174 15.4162 23.6559 15.2512 23.5768 15.0428C 23.4196 14.628 23.1887 14.0299 22.9008 13.3134C 22.3268 11.8848 21.5129 9.95364 20.5782 8.00134C 19.6437 6.05057 18.5606 4.02816 17.4693 2.4516C 16.9181 1.65774 16.3243 0.927651 15.7577 0.389772C 15.183 -0.153162 14.5303 -0.606718 13.8173 -0.769573L 13.4276 0.936485C 13.6998 0.998666 14.079 1.21128 14.5559 1.66185C 15.041 2.11747 15.5184 2.70822 16.0311 3.44873C 17.0675 4.94091 18.0825 6.84138 18.9998 8.75723C 19.9169 10.6715 20.7085 12.5508 21.277 13.9658C 21.5604 14.6712 21.7851 15.2533 21.9405 15.6632C 22.0179 15.8672 22.077 16.0257 22.1174 16.1348C 22.1374 16.1889 22.1523 16.2296 22.1626 16.2576C 22.1676 16.2713 22.1713 16.2814 22.1738 16.2884C 22.175 16.2918 22.1759 16.2941 22.1765 16.2958C 22.1768 16.2966 22.177 16.2971 22.1771 16.2975C 22.1772 16.2977 22.1772 16.2978 22.1773 16.2979C 22.1773 16.2979 22.1773 16.2979 23 16ZM 13.8173 -0.769573C 12.5159 -1.06686 10.9289 -0.555444 9.45391 0.15008C 7.94325 0.874594 6.29804 1.93176 4.82345 2.98922C 3.34746 4.04843 1.98838 5.14172 1.01253 5.95895C 0.522528 6.36937 0.121271 6.71656 -0.153475 6.95769C -0.291809 7.0791 -0.400838 7.17604 -0.4737 7.24122C -0.510585 7.27422 -0.539415 7.30016 -0.558313 7.31722C -0.567982 7.32594 -0.575626 7.33286 -0.580516 7.33729C -0.58307 7.3396 -0.585156 7.3415 -0.586439 7.34266C -0.587134 7.34329 -0.587738 7.34384 -0.588086 7.34416C -0.588287 7.34434 -0.588478 7.34451 -0.588579 7.34461C -0.588733 7.34475 -0.58885 7.34485 0 7.99206C 0.58885 8.63927 0.588807 8.63931 0.5888 8.63932C 0.588847 8.63927 0.588877 8.63925 0.588971 8.63916C 0.589211 8.63894 0.589491 8.63869 0.58997 8.63826C 0.591035 8.63729 0.592466 8.63599 0.594581 8.63407C 0.599028 8.63004 0.605331 8.62434 0.614101 8.61643C 0.632081 8.6002 0.658098 8.57679 0.693086 8.54549C 0.763971 8.48207 0.866797 8.39064 1.0009 8.27295C 1.27102 8.03587 1.65693 7.7019 2.13617 7.30057C 3.09881 6.49429 4.40646 5.44164 5.8435 4.41119C 7.28194 3.37898 8.79606 2.40273 10.209 1.72877C 11.6577 1.03582 12.7587 0.783695 13.4276 0.936485L 13.8173 -0.769573ZM 0 7.99206C -0.100052 8.86132 -0.0998911 8.86134 -0.09968 8.86137C -0.0995419 8.86138 -0.0992798 8.86141 -0.0990039 8.86144C -0.0985254 8.8615 -0.0976973 8.86159 -0.0967425 8.8617C -0.0949799 8.8619 -0.0921167 8.86223 -0.0886115 8.86263C -0.0818971 8.86338 -0.0714084 8.86456 -0.0581478 8.86603C -0.0322269 8.86891 0.00727327 8.87323 0.0577368 8.8786C 0.15743 8.88921 0.306312 8.9046 0.494546 8.92282C 0.86842 8.95899 1.4121 9.00769 2.07016 9.05598C 3.3807 9.15204 5.18486 9.24866 7.08811 9.24777C 8.98878 9.24629 11.048 9.14392 12.831 8.84691C 14.5898 8.55245 16.2835 8.03965 17.3414 7.09207L 16.1738 5.78853C 15.51 6.38307 14.2481 6.8353 12.5421 7.12093C 10.8603 7.40402 8.94529 7.49683 7.08698 7.49777C 5.23125 7.49928 3.49163 7.40556 2.19815 7.31066C 1.5542 7.26347 1.0308 7.21654 0.663099 7.18095C 0.480546 7.16329 0.340016 7.14877 0.242995 7.13844C 0.195102 7.13334 0.159419 7.12943 0.134746 7.1267C 0.12271 7.12536 0.114049 7.12439 0.107938 7.1237C 0.10503 7.12337 0.103062 7.12315 0.101596 7.12298C 0.100937 7.1229 0.100551 7.12286 0.10022 7.12282C 0.100091 7.12281 0.100049 7.1228 0.0999844 7.12279C 0.0999926 7.12279 0.100052 7.1228 0 7.99206Z"/>
</defs>
</svg>
