<svg width="68" height="68" viewBox="0 0 68 68" version="1.1" xmlns="http://www.w3.org/2000/svg" xmlns:xlink="http://www.w3.org/1999/xlink">
<title>icon-book</title>
<desc>Created using Figma</desc>
<g id="Canvas" transform="translate(-1370 -1389)">
<g id="icon-book">
<g id="Shape">
<use xlink:href="#path0_fill" transform="translate(1371 1390)" fill="#0072A0"/>
<use xlink:href="#path1_stroke" transform="translate(1371 1390)" fill="#FFFFFF"/>
</g>
<g id="Oval">
<use xlink:href="#path2_fill" transform="translate(1395 1420)" fill="#0072A0"/>
</g>
<g id="Oval">
<use xlink:href="#path2_fill" transform="translate(1395 1427.5)" fill="#0072A0"/>
</g>
<g id="Oval">
<use xlink:href="#path2_fill" transform="translate(1395 1435)" fill="#0072A0"/>
</g>
<g id="Oval">
<use xlink:href="#path2_fill" transform="translate(1395 1442.5)" fill="#0072A0"/>
</g>
<g id="Oval">
<use xlink:href="#path2_fill" transform="translate(1402.5 1420)" fill="#0072A0"/>
</g>
<g id="Oval">
<use xlink:href="#path2_fill" transform="translate(1410 1420)" fill="#0072A0"/>
</g>
<g id="Oval">
<use xlink:href="#path2_fill" transform="translate(1417.5 1420)" fill="#0072A0"/>
</g>
<g id="Oval">
<use xlink:href="#path2_fill" transform="translate(1425 1420)" fill="#0072A0"/>
</g>
<g id="Oval">
<use xlink:href="#path2_fill" transform="translate(1380 1427.5)" fill="#0072A0"/>
</g>
<g id="Oval">
<use xlink:href="#path2_fill" transform="translate(1387.5 1427.5)" fill="#0072A0"/>
</g>
<g id="Oval">
<use xlink:href="#path2_fill" transform="translate(1402.5 1427.5)" fill="#0072A0"/>
</g>
<g id="Oval">
<use xlink:href="#path2_fill" transform="translate(1410 1427.5)" fill="#0072A0"/>
</g>
<g id="Oval">
<use xlink:href="#path2_fill" transform="translate(1425 1427.5)" fill="#0072A0"/>
</g>
<g id="Oval">
<use xlink:href="#path2_fill" transform="translate(1380 1435)" fill="#0072A0"/>
</g>
<g id="Oval">
<use xlink:href="#path2_fill" transform="translate(1387.5 1435)" fill="#0072A0"/>
</g>
<g id="Oval">
<use xlink:href="#path2_fill" transform="translate(1402.5 1435)" fill="#0072A0"/>
</g>
<g id="Oval">
<use xlink:href="#path2_fill" transform="translate(1410 1435)" fill="#0072A0"/>
</g>
<g id="Oval">
<use xlink:href="#path2_fill" transform="translate(1417.5 1427.5)" fill="#0072A0"/>
</g>
<g id="Oval">
<use xlink:href="#path2_fill" transform="translate(1380 1442.5)" fill="#0072A0"/>
</g>
<g id="Oval">
<use xlink:href="#path2_fill" transform="translate(1387.5 1442.5)" fill="#0072A0"/>
</g>
<g id="Oval">
<use xlink:href="#path2_fill" transform="translate(1402.5 1442.5)" fill="#0072A0"/>
</g>
<g id="Oval">
<use xlink:href="#path2_fill" transform="translate(1410 1442.5)" fill="#0072A0"/>
</g>
<g id="Shape">
<use xlink:href="#path3_fill" transform="translate(1416 1435)" fill="#0072A0"/>
</g>
</g>
</g>
<defs>
<path id="path0_fill" fill-rule="evenodd" d="M 43.2413 0C 45.9895 0 48.287 1.99268 48.8162 4.63159L 66 4.63159L 66 19.6842L 66 66L 0 66L 0 19.6842L 0 4.63159L 17.1838 4.63159C 17.713 1.99268 20.0116 0 22.7587 0C 25.8959 0 28.4482 2.59717 28.4482 5.78943C 28.4482 8.98181 25.8959 11.579 22.7587 11.579C 22.1294 11.579 21.6207 11.0614 21.6207 10.421C 21.6207 9.78076 22.1294 9.26318 22.7587 9.26318C 24.6407 9.26318 26.1724 7.70459 26.1724 5.78943C 26.1724 3.87427 24.6407 2.3158 22.7587 2.3158C 21.277 2.3158 20.0253 3.28613 19.5542 4.63159L 21.6207 4.63159C 22.25 4.63159 22.7587 5.14917 22.7587 5.78943C 22.7587 6.42981 22.25 6.94739 21.6207 6.94739L 18.2069 6.94739L 2.27588 6.94739L 2.27588 17.3684L 63.7241 17.3684L 63.7241 6.94739L 48.8162 6.94739C 48.287 9.58618 45.9884 11.579 43.2413 11.579C 42.6121 11.579 42.1034 11.0614 42.1034 10.421C 42.1034 9.78076 42.6121 9.26318 43.2413 9.26318C 45.1235 9.26318 46.6552 7.70459 46.6552 5.78943C 46.6552 3.87427 45.1235 2.3158 43.2413 2.3158C 42.6121 2.3158 42.1034 1.79822 42.1034 1.15784C 42.1034 0.517578 42.6121 0 43.2413 0ZM 33 6C 33 4.01526 31.3175 2.40002 29.25 2.40002C 28.5587 2.40002 28 1.86365 28 1.19995C 28 0.536377 28.5587 0 29.25 0C 32.6963 0 35.5 2.69165 35.5 6C 35.5 9.30835 32.6963 12 29.25 12C 28.5587 12 28 11.4636 28 10.8C 28 10.1364 28.5587 9.59998 29.25 9.59998C 31.3175 9.59998 33 7.98474 33 6ZM 36.25 2.40002C 38.3175 2.40002 40 4.01526 40 6C 40 7.98474 38.3175 9.59998 36.25 9.59998C 35.5587 9.59998 35 10.1364 35 10.8C 35 11.4636 35.5587 12 36.25 12C 39.6963 12 42.5 9.30835 42.5 6C 42.5 2.69165 39.6963 0 36.25 0C 35.5587 0 35 0.536377 35 1.19995C 35 1.86365 35.5587 2.40002 36.25 2.40002ZM 2.27588 19.6842L 2.27588 63.6842L 63.7241 63.6842L 63.7241 19.6842L 2.27588 19.6842Z"/>
<path id="path1_stroke" d="M 48.8162 4.63159L 48.4485 4.70532L 48.5089 5.00659L 48.8162 5.00659L 48.8162 4.63159ZM 66 4.63159L 66.375 4.63159L 66.375 4.25659L 66 4.25659L 66 4.63159ZM 66 66L 66 66.375L 66.375 66.375L 66.375 66L 66 66ZM 0 66L -0.375 66L -0.375 66.375L 0 66.375L 0 66ZM 0 4.63159L 0 4.25659L -0.375 4.25659L -0.375 4.63159L 0 4.63159ZM 17.1838 4.63159L 17.1838 5.00659L 17.4911 5.00659L 17.5515 4.70532L 17.1838 4.63159ZM 19.5542 4.63159L 19.2003 4.50767L 19.0256 5.00659L 19.5542 5.00659L 19.5542 4.63159ZM 2.27588 6.94739L 2.27588 6.57239L 1.90088 6.57239L 1.90088 6.94739L 2.27588 6.94739ZM 2.27588 17.3684L 1.90088 17.3684L 1.90088 17.7434L 2.27588 17.7434L 2.27588 17.3684ZM 63.7241 17.3684L 63.7241 17.7434L 64.0991 17.7434L 64.0991 17.3684L 63.7241 17.3684ZM 63.7241 6.94739L 64.0991 6.94739L 64.0991 6.57239L 63.7241 6.57239L 63.7241 6.94739ZM 48.8162 6.94739L 48.8162 6.57239L 48.5089 6.57239L 48.4485 6.87365L 48.8162 6.94739ZM 2.27588 63.6842L 1.90088 63.6842L 1.90088 64.0592L 2.27588 64.0592L 2.27588 63.6842ZM 2.27588 19.6842L 2.27588 19.3092L 1.90088 19.3092L 1.90088 19.6842L 2.27588 19.6842ZM 63.7241 63.6842L 63.7241 64.0592L 64.0991 64.0592L 64.0991 63.6842L 63.7241 63.6842ZM 63.7241 19.6842L 64.0991 19.6842L 64.0991 19.3092L 63.7241 19.3092L 63.7241 19.6842ZM 49.1838 4.55786C 48.6212 1.7521 46.1766 -0.375 43.2413 -0.375L 43.2413 0.375C 45.8024 0.375 47.9528 2.23325 48.4485 4.70532L 49.1838 4.55786ZM 66 4.25659L 48.8162 4.25659L 48.8162 5.00659L 66 5.00659L 66 4.25659ZM 66.375 19.6842L 66.375 4.63159L 65.625 4.63159L 65.625 19.6842L 66.375 19.6842ZM 66.375 66L 66.375 19.6842L 65.625 19.6842L 65.625 66L 66.375 66ZM 0 66.375L 66 66.375L 66 65.625L 0 65.625L 0 66.375ZM -0.375 19.6842L -0.375 66L 0.375 66L 0.375 19.6842L -0.375 19.6842ZM -0.375 4.63159L -0.375 19.6842L 0.375 19.6842L 0.375 4.63159L -0.375 4.63159ZM 17.1838 4.25659L 0 4.25659L 0 5.00659L 17.1838 5.00659L 17.1838 4.25659ZM 22.7587 -0.375C 19.8246 -0.375 17.3788 1.75206 16.8162 4.55786L 17.5515 4.70532C 18.0472 2.2333 20.1986 0.375 22.7587 0.375L 22.7587 -0.375ZM 28.8232 5.78943C 28.8232 2.39624 26.1091 -0.375 22.7587 -0.375L 22.7587 0.375C 25.6826 0.375 28.0732 2.7981 28.0732 5.78943L 28.8232 5.78943ZM 22.7587 11.954C 26.1091 11.954 28.8232 9.18274 28.8232 5.78943L 28.0732 5.78943C 28.0732 8.78089 25.6826 11.204 22.7587 11.204L 22.7587 11.954ZM 21.2457 10.421C 21.2457 11.2623 21.9162 11.954 22.7587 11.954L 22.7587 11.204C 22.3426 11.204 21.9957 10.8605 21.9957 10.421L 21.2457 10.421ZM 22.7587 8.88818C 21.9162 8.88818 21.2457 9.57981 21.2457 10.421L 21.9957 10.421C 21.9957 9.98171 22.3426 9.63818 22.7587 9.63818L 22.7587 8.88818ZM 25.7974 5.78943C 25.7974 7.50368 24.4275 8.88818 22.7587 8.88818L 22.7587 9.63818C 24.854 9.63818 26.5474 7.9055 26.5474 5.78943L 25.7974 5.78943ZM 22.7587 2.6908C 24.4275 2.6908 25.7974 4.0752 25.7974 5.78943L 26.5474 5.78943C 26.5474 3.67334 24.854 1.9408 22.7587 1.9408L 22.7587 2.6908ZM 19.9081 4.75551C 20.3303 3.54966 21.4475 2.6908 22.7587 2.6908L 22.7587 1.9408C 21.1065 1.9408 19.7202 3.02261 19.2003 4.50767L 19.9081 4.75551ZM 21.6207 4.25659L 19.5542 4.25659L 19.5542 5.00659L 21.6207 5.00659L 21.6207 4.25659ZM 23.1337 5.78943C 23.1337 4.94822 22.4632 4.25659 21.6207 4.25659L 21.6207 5.00659C 22.0368 5.00659 22.3837 5.35012 22.3837 5.78943L 23.1337 5.78943ZM 21.6207 7.32239C 22.4632 7.32239 23.1337 6.63073 23.1337 5.78943L 22.3837 5.78943C 22.3837 6.22889 22.0368 6.57239 21.6207 6.57239L 21.6207 7.32239ZM 18.2069 7.32239L 21.6207 7.32239L 21.6207 6.57239L 18.2069 6.57239L 18.2069 7.32239ZM 2.27588 7.32239L 18.2069 7.32239L 18.2069 6.57239L 2.27588 6.57239L 2.27588 7.32239ZM 2.65088 17.3684L 2.65088 6.94739L 1.90088 6.94739L 1.90088 17.3684L 2.65088 17.3684ZM 63.7241 16.9934L 2.27588 16.9934L 2.27588 17.7434L 63.7241 17.7434L 63.7241 16.9934ZM 63.3491 6.94739L 63.3491 17.3684L 64.0991 17.3684L 64.0991 6.94739L 63.3491 6.94739ZM 48.8162 7.32239L 63.7241 7.32239L 63.7241 6.57239L 48.8162 6.57239L 48.8162 7.32239ZM 43.2413 11.954C 46.1754 11.954 48.6212 9.8268 49.1838 7.02112L 48.4485 6.87365C 47.9528 9.34557 45.8014 11.204 43.2413 11.204L 43.2413 11.954ZM 41.7284 10.421C 41.7284 11.2623 42.3988 11.954 43.2413 11.954L 43.2413 11.204C 42.8253 11.204 42.4784 10.8605 42.4784 10.421L 41.7284 10.421ZM 43.2413 8.88818C 42.3988 8.88818 41.7284 9.57981 41.7284 10.421L 42.4784 10.421C 42.4784 9.98171 42.8253 9.63818 43.2413 9.63818L 43.2413 8.88818ZM 46.2802 5.78943C 46.2802 7.50367 44.9103 8.88818 43.2413 8.88818L 43.2413 9.63818C 45.3368 9.63818 47.0302 7.90551 47.0302 5.78943L 46.2802 5.78943ZM 43.2413 2.6908C 44.9103 2.6908 46.2802 4.07521 46.2802 5.78943L 47.0302 5.78943C 47.0302 3.67333 45.3368 1.9408 43.2413 1.9408L 43.2413 2.6908ZM 41.7284 1.15784C 41.7284 1.99914 42.3988 2.6908 43.2413 2.6908L 43.2413 1.9408C 42.8253 1.9408 42.4784 1.5973 42.4784 1.15784L 41.7284 1.15784ZM 43.2413 -0.375C 42.3988 -0.375 41.7284 0.31663 41.7284 1.15784L 42.4784 1.15784C 42.4784 0.718527 42.8253 0.375 43.2413 0.375L 43.2413 -0.375ZM 29.25 2.77502C 31.125 2.77502 32.625 4.23665 32.625 6L 33.375 6C 33.375 3.79387 31.51 2.02502 29.25 2.02502L 29.25 2.77502ZM 27.625 1.19995C 27.625 2.08502 28.3662 2.77502 29.25 2.77502L 29.25 2.02502C 28.7513 2.02502 28.375 1.64228 28.375 1.19995L 27.625 1.19995ZM 29.25 -0.375C 28.3662 -0.375 27.625 0.314982 27.625 1.19995L 28.375 1.19995C 28.375 0.757772 28.7512 0.375 29.25 0.375L 29.25 -0.375ZM 35.875 6C 35.875 2.47027 32.8888 -0.375 29.25 -0.375L 29.25 0.375C 32.5038 0.375 35.125 2.91303 35.125 6L 35.875 6ZM 29.25 12.375C 32.8888 12.375 35.875 9.52973 35.875 6L 35.125 6C 35.125 9.08697 32.5038 11.625 29.25 11.625L 29.25 12.375ZM 27.625 10.8C 27.625 11.685 28.3662 12.375 29.25 12.375L 29.25 11.625C 28.7512 11.625 28.375 11.2422 28.375 10.8L 27.625 10.8ZM 29.25 9.22498C 28.3662 9.22498 27.625 9.91498 27.625 10.8L 28.375 10.8C 28.375 10.3577 28.7513 9.97498 29.25 9.97498L 29.25 9.22498ZM 32.625 6C 32.625 7.76335 31.125 9.22498 29.25 9.22498L 29.25 9.97498C 31.51 9.97498 33.375 8.20613 33.375 6L 32.625 6ZM 40.375 6C 40.375 3.79387 38.51 2.02502 36.25 2.02502L 36.25 2.77502C 38.125 2.77502 39.625 4.23665 39.625 6L 40.375 6ZM 36.25 9.97498C 38.51 9.97498 40.375 8.20613 40.375 6L 39.625 6C 39.625 7.76335 38.125 9.22498 36.25 9.22498L 36.25 9.97498ZM 35.375 10.8C 35.375 10.3577 35.7513 9.97498 36.25 9.97498L 36.25 9.22498C 35.3662 9.22498 34.625 9.91498 34.625 10.8L 35.375 10.8ZM 36.25 11.625C 35.7512 11.625 35.375 11.2422 35.375 10.8L 34.625 10.8C 34.625 11.685 35.3662 12.375 36.25 12.375L 36.25 11.625ZM 42.125 6C 42.125 9.08697 39.5038 11.625 36.25 11.625L 36.25 12.375C 39.8888 12.375 42.875 9.52973 42.875 6L 42.125 6ZM 36.25 0.375C 39.5038 0.375 42.125 2.91303 42.125 6L 42.875 6C 42.875 2.47027 39.8888 -0.375 36.25 -0.375L 36.25 0.375ZM 35.375 1.19995C 35.375 0.757772 35.7512 0.375 36.25 0.375L 36.25 -0.375C 35.3662 -0.375 34.625 0.314982 34.625 1.19995L 35.375 1.19995ZM 36.25 2.02502C 35.7513 2.02502 35.375 1.64228 35.375 1.19995L 34.625 1.19995C 34.625 2.08502 35.3662 2.77502 36.25 2.77502L 36.25 2.02502ZM 2.65088 63.6842L 2.65088 19.6842L 1.90088 19.6842L 1.90088 63.6842L 2.65088 63.6842ZM 63.7241 63.3092L 2.27588 63.3092L 2.27588 64.0592L 63.7241 64.0592L 63.7241 63.3092ZM 63.3491 19.6842L 63.3491 63.6842L 64.0991 63.6842L 64.0991 19.6842L 63.3491 19.6842ZM 2.27588 20.0592L 63.7241 20.0592L 63.7241 19.3092L 2.27588 19.3092L 2.27588 20.0592Z"/>
<path id="path2_fill" d="M 1.5 3C 2.32843 3 3 2.32843 3 1.5C 3 0.671573 2.32843 0 1.5 0C 0.671573 0 0 0.671573 0 1.5C 0 2.32843 0.671573 3 1.5 3Z"/>
<path id="path3_fill" d="M 0.155769 5.775C 0.0519231 5.67 0 5.5125 0 5.4075C 0 5.3025 0.0519231 5.145 0.155769 5.04L 0.882692 4.305C 1.09038 4.095 1.40192 4.095 1.60962 4.305L 1.66154 4.3575L 4.51731 7.455C 4.62115 7.56 4.77692 7.56 4.88077 7.455L 11.8385 0.1575L 11.8904 0.1575C 12.0981 -0.0525 12.4096 -0.0525 12.6173 0.1575L 13.3442 0.8925C 13.5519 1.1025 13.5519 1.4175 13.3442 1.6275L 5.03654 10.3425C 4.93269 10.4475 4.82885 10.5 4.67308 10.5C 4.51731 10.5 4.41346 10.4475 4.30962 10.3425L 0.259615 5.9325L 0.155769 5.775Z"/>
</defs>
</svg>
