<?xml version="1.0" encoding="utf-8"?>
<!-- Generator: Adobe Illustrator 22.0.0, SVG Export Plug-In . SVG Version: 6.00 Build 0)  -->
<svg version="1.1" id="Layer_1" xmlns="http://www.w3.org/2000/svg" xmlns:xlink="http://www.w3.org/1999/xlink" x="0px" y="0px"
	 viewBox="0 0 99 99" style="enable-background:new 0 0 99 99;" xml:space="preserve">
<style type="text/css">
	.st0{fill:none;}
	.st1{fill:#0072A0;}
</style>
<title>icon-search</title>
<desc>Created using Figma</desc>
<g>
	<path class="st0" d="M77.9,56.8c-0.3,0.3-0.7,0.7-1,1l3,3c0.1-0.2,0.3-0.4,0.5-0.5c0.2-0.2,0.4-0.3,0.6-0.5L77.9,56.8z"/>
	<path class="st0" d="M83.6,25H7c-1.6,0-2.9,1.3-2.9,2.9v34.7c0,1.6,1.3,2.9,2.9,2.9h72.8c-0.5-0.7-0.7-1.5-0.7-2.3
		c0-0.3,0-0.6,0.1-0.9c0,0-1.2-1.2-3.6-3.5c-2.9,2.2-6.5,3.4-10.4,3.4c-9.5,0-17.3-7.6-17.3-16.9c0-9.3,7.7-16.9,17.3-16.9
		S82.4,36,82.4,45.3c0,3.8-1.3,7.4-3.5,10.2l3.5,3.4c0.2,0,0.4,0,0.6,0l0,0l0,0l0,0c0.1,0,0.2,0,0.4,0c1.1,0,2.2,0.4,3,1.2l0.1,0.1
		V27.9C86.4,26.3,85.2,25,83.6,25z"/>
	<path class="st0" d="M84.8,60.8c-0.5-0.4-1.1-0.6-1.7-0.6c-0.7,0-1.4,0.3-1.9,0.8c-0.5,0.5-0.8,1.1-0.8,1.8c0,0.6,0.2,1.2,0.6,1.7
		l10.5,10.3c0.5,0.5,1.2,0.8,1.9,0.8c0.7,0,1.4-0.3,1.9-0.8c0.5-0.5,0.8-1.1,0.8-1.8c0-0.7-0.3-1.3-0.8-1.8L84.8,60.8z"/>
	<path class="st1" d="M4.1,62.6H1.2c0,3.2,2.6,5.8,5.8,5.8v-2.9C5.4,65.5,4.1,64.2,4.1,62.6z"/>
	<rect x="1.2" y="27.9" class="st1" width="2.9" height="34.7"/>
	<path class="st1" d="M7,25v-2.9c-3.2,0-5.8,2.6-5.8,5.8h2.9C4.1,26.3,5.4,25,7,25z"/>
	<path class="st1" d="M79.8,65.5H7v2.9h75v-0.6l-1.7-1.7C80.1,65.9,80,65.7,79.8,65.5z"/>
	<polygon class="st1" points="86.4,60.2 88.5,62.3 89.3,62.3 89.3,27.9 86.4,27.9 	"/>
	<path class="st1" d="M86.4,27.9h2.9c0-3.2-2.6-5.8-5.8-5.8V25C85.2,25,86.4,26.3,86.4,27.9z"/>
	<rect x="7" y="22.1" class="st1" width="76.6" height="2.9"/>
	<path class="st1" d="M96.7,70.3l-8.2-8.1h-2.1v-2.1l-0.1-0.1c-0.8-0.8-1.9-1.2-3-1.2c-0.1,0-0.2,0-0.4,0l0,0l0,0l0,0
		c-0.2,0-0.4,0-0.6,0l-3.5-3.4c2.2-2.8,3.5-6.4,3.5-10.2c0-9.3-7.7-16.9-17.3-16.9S47.9,36,47.9,45.3c0,9.3,7.7,16.9,17.3,16.9
		c3.9,0,7.5-1.3,10.4-3.4c2.4,2.3,3.5,3.5,3.6,3.5c-0.1,0.3-0.1,0.6-0.1,0.9c0,0.8,0.3,1.7,0.7,2.3H82v2.3l8.7,8.5
		c0.8,0.8,1.9,1.2,3,1.2s2.2-0.4,3-1.2c0.8-0.8,1.3-1.8,1.3-3C98,72.2,97.6,71.1,96.7,70.3z M65.2,60.6c-8.6,0-15.6-6.9-15.6-15.3
		S56.6,30,65.2,30s15.6,6.9,15.6,15.3S73.8,60.6,65.2,60.6z M79.9,60.7l-3-3c0.4-0.3,0.7-0.7,1-1l3,3c-0.2,0.1-0.4,0.3-0.6,0.5
		C80.2,60.3,80,60.5,79.9,60.7z M95.4,74.8c-0.5,0.5-1.2,0.8-1.9,0.8c-0.7,0-1.4-0.3-1.9-0.8L81.1,64.5c-0.4-0.5-0.6-1.1-0.6-1.7
		c0-0.7,0.3-1.3,0.8-1.8c0.5-0.5,1.2-0.8,1.9-0.8c0.6,0,1.2,0.2,1.7,0.6l10.5,10.3c0.5,0.5,0.8,1.1,0.8,1.8
		C96.1,73.7,95.9,74.3,95.4,74.8z"/>
	<polygon class="st1" points="86.4,62.3 88.5,62.3 86.4,60.2 	"/>
	<path class="st1" d="M79.8,65.5c0.2,0.2,0.3,0.4,0.5,0.6l1.7,1.7v-2.3H79.8z"/>
</g>
</svg>
