<?xml version="1.0" encoding="utf-8"?>
<!-- Generator: Adobe Illustrator 22.0.0, SVG Export Plug-In . SVG Version: 6.00 Build 0)  -->
<svg version="1.1" id="Layer_1" xmlns="http://www.w3.org/2000/svg" xmlns:xlink="http://www.w3.org/1999/xlink" x="0px" y="0px"
	 viewBox="0 0 73 67" style="enable-background:new 0 0 73 67;" xml:space="preserve">
<style type="text/css">
	.st0{fill:#0072A0;}
	.st1{fill:none;stroke:#0072A0;stroke-width:1.5;stroke-linecap:round;}
</style>
<title>connect-icon</title>
<desc>Created with Sketch.</desc>
<g id="Page-1">
	<g id="Artboard" transform="translate(-679.000000, -1586.000000)">
		<g id="connect-icon" transform="translate(679.000000, 1586.000000)">
			<path id="Shape" class="st0" d="M29.9,62.4l-5.7,3.9c-0.4,0.2-0.9,0.2-1.3,0c-0.4-0.2-0.4-0.6,0-0.9l5-3.4l-5-3.4
				c-0.4-0.2-0.4-0.7,0-0.9c0.4-0.2,0.9-0.2,1.3,0l5.7,3.9c0.2,0.1,0.3,0.3,0.3,0.4C30.2,62.1,30.1,62.3,29.9,62.4z"/>
			<path id="Shape_1_" class="st0" d="M36.5,9.7l4.6,3.2c0.3,0.2,0.8,0.2,1,0c0.3-0.2,0.3-0.5,0-0.7l-4-2.9l4-2.9
				c0.3-0.2,0.3-0.5,0-0.7c-0.3-0.2-0.8-0.2-1,0l-4.6,3.2c-0.1,0.1-0.2,0.2-0.2,0.4C36.2,9.4,36.3,9.6,36.5,9.7z"/>
			<path id="Path" class="st1" d="M68.5,16.2C60.7,8.8,49.3,5.8,38.4,9.4"/>
			<path id="Oval-2" class="st1" d="M1.4,52.4c6.6,7.2,16.6,11.1,27.1,9.5"/>
			<path id="Shape_2_" class="st0" d="M72.7,63.5c0-3.2-0.8-5.7-2.5-7.3c-2.1-2.1-4.6-2.1-4.8-2.1c0,0-1.1,0-3.4,0V52
				c2.1-1,3.5-2.5,4.3-3.8c1.3-2,1.6-4,1.6-4.1c0,0,0-0.1,0-0.2c0.5-0.1,0.9-0.4,1.2-0.7c0.9-1.1,0.9-2.7,0.8-3.4
				c-0.1-0.5-0.3-0.9-0.7-1.2c0.7-2.6,0.4-4.8,0.3-5.6c1.1-0.9,1.3-1.9,1.3-2c0-2-1.3-4-3.7-5.5c-2.4-1.5-5.4-2.3-8.5-2.3
				c0,0-0.1,0-0.1,0c0,0-0.1,0-0.1,0c-3.1,0-6.1,0.8-8.5,2.3c-2.3,1.5-3.7,3.5-3.7,5.4c0,0.2,0.2,1.1,1.2,2c-0.1,0.7-0.5,3,0.3,5.7
				c-0.4,0.4-0.7,0.8-0.7,1.3c-0.1,0.7-0.1,2.4,0.8,3.4c0.3,0.4,0.7,0.6,1.2,0.7V44c0,0.2,0.3,2.1,1.6,4.2c0.8,1.3,2.2,2.8,4.3,3.7
				c0,0,0,0.7,0,2.2h-3.3c-0.1,0-2.7,0-4.8,2.1c-1.6,1.7-2.5,4.1-2.5,7.3v2.8h28.4V63.5z M66.8,55.7c0.7,0.2,1.6,0.6,2.4,1.4
				l-1.5,1.1c-0.3-0.2-0.6-0.5-0.9-0.7V55.7z M70,58.1c0.4,0.6,0.7,1.4,1,2.2h-1.7c-0.2-0.4-0.4-0.8-0.7-1.1L70,58.1z M65.4,55.4
				C65.4,55.4,65.4,55.4,65.4,55.4l0.1,2.5c0,0.3,0.1,0.5,0.4,0.6c1.1,0.6,1.9,1.5,2.4,2.7c0.1,0.3,0.3,0.4,0.6,0.4h2.4
				c0.1,0.6,0.1,1.2,0.1,1.9v1.4H60.8c0,0,0-0.1,0-0.1l-1.3-4.9l0.9,0.3c0.1,0,0.1,0,0.2,0c0.2,0,0.4-0.1,0.5-0.2l0.7-0.8l1.2-0.8
				c0.2-0.1,0.4-0.4,0.3-0.7L63,55.4L65.4,55.4L65.4,55.4z M55.3,56.3c0.5,1,1.4,1.7,2.5,2l-1.2,0.4l-0.5-0.6c0-0.1-0.1-0.1-0.2-0.1
				l-0.9-0.6L55.3,56.3z M61.8,56.2l0.2,1.2L61.1,58c-0.1,0-0.1,0.1-0.2,0.1l-0.5,0.6l-1.2-0.4C60.4,58.1,61.3,57.3,61.8,56.2z
				 M59.5,64.9h-1.8l0.9-3.5L59.5,64.9z M68.2,42.3c-0.1,0.1-0.1,0.1-0.2,0.2v-3c0.2,0,0.4,0.1,0.5,0.2c0.1,0.1,0.1,0.1,0.2,0.3
				C68.7,40.7,68.7,41.7,68.2,42.3z M68,38C68,38,68,38,68,38l0-1.3c0,0,0-0.1,0-0.1c0-0.2-0.1-0.4-0.3-0.5L66.1,35v-0.7
				c0,0,0.1,0,0.1,0c0.9-0.2,1.6-0.4,2.1-0.7C68.5,34.6,68.5,36.2,68,38z M58.5,33.4c3.7,0,5.6,0.4,6.3,0.7v0.6
				c-6.5,2.2-11.7,0.4-12.6,0v-0.6C53,33.8,54.8,33.4,58.5,33.4z M58.4,24.4c0,0,0.1,0,0.1,0c0,0,0.1,0,0.1,0
				c6.1,0,10.8,3.4,10.9,6.3C69.5,31,68.9,32.4,66,33c0,0-0.1,0-0.1,0c0,0-0.1,0-0.1-0.1c-0.2-0.1-2-0.9-7.3-0.9s-7.1,0.8-7.3,0.9
				c0,0,0,0,0,0c0,0,0,0,0,0c-2.9-0.6-3.5-2-3.6-2.3C47.7,27.8,52.4,24.4,58.4,24.4z M48.7,33.6c0.6,0.3,1.3,0.6,2.2,0.7V35
				l-1.5,1.1c-0.2,0.1-0.3,0.3-0.3,0.5c0,0,0,0.1,0,0.1V38c0,0,0,0,0,0C48.5,36.2,48.5,34.5,48.7,33.6z M48.8,42.3
				c-0.5-0.5-0.6-1.6-0.5-2.4c0-0.2,0.1-0.3,0.1-0.3c0.1-0.1,0.3-0.2,0.6-0.2v3.1C49,42.4,48.9,42.3,48.8,42.3z M51.8,47.5
				c-1-1.6-1.4-3.2-1.4-3.5v-7l1.4-1c0.8,0.3,3.2,1.1,6.5,1.1c2,0,4.3-0.3,6.8-1.1l1.4,1v7c0,0.3-0.4,1.9-1.4,3.5
				c-1.5,2.4-3.7,3.7-6.7,3.9h-0.1C55.5,51.1,53.3,49.9,51.8,47.5z M58.4,52.7C58.4,52.7,58.4,52.7,58.4,52.7l0.2,0c0,0,0,0,0,0
				c0.8,0,1.5-0.2,2.1-0.3v2.4c0,0,0,0,0,0c0,1.2-1,2.3-2.2,2.3c-1.2,0-2.2-1-2.2-2.3v-2.4C56.9,52.5,57.6,52.6,58.4,52.7z M47,58.1
				l1.4,1.1c-0.3,0.3-0.5,0.7-0.7,1.1H46C46.3,59.4,46.6,58.7,47,58.1z M49.3,58.2L47.9,57c0.8-0.8,1.7-1.1,2.4-1.4v1.8
				C49.9,57.7,49.6,57.9,49.3,58.2z M45.6,63.5c0-0.7,0-1.3,0.1-1.9h2.4c0.3,0,0.5-0.2,0.6-0.4c0.5-1.2,1.3-2.1,2.4-2.7
				c0.2-0.1,0.4-0.4,0.4-0.6v-2.5c0,0,0,0,0.1,0h2.5l-0.4,2.2c0,0.3,0.1,0.6,0.3,0.7l1.2,0.8l0.7,0.8c0.1,0.2,0.3,0.2,0.5,0.2
				c0.1,0,0.1,0,0.2,0l0.9-0.3l-1.3,5c0,0,0,0.1,0,0.1H45.6V63.5z"/>
			<path id="Shape_3_" class="st0" d="M58.4,30.8c1.4,0,2.5-1.1,2.5-2.4c0-0.4-0.3-0.7-0.7-0.7s-0.7,0.3-0.7,0.7
				c0,0.3-0.2,0.6-0.4,0.8v-1.5c0.4,0,0.7-0.3,0.7-0.7c0-0.4-0.3-0.7-0.7-0.7h-0.3c0.1-0.1,0.1-0.2,0.1-0.3c0-0.3-0.2-0.5-0.5-0.5
				c-0.3,0-0.5,0.2-0.5,0.5c0,0.1,0,0.2,0.1,0.3h-0.3c-0.4,0-0.7,0.3-0.7,0.7c0,0.4,0.3,0.7,0.7,0.7v1.5c-0.2-0.2-0.4-0.5-0.4-0.8
				c0-0.4-0.3-0.7-0.7-0.7s-0.7,0.3-0.7,0.7C55.9,29.7,57.1,30.8,58.4,30.8z"/>
			<path id="Shape_4_" class="st0" d="M30.1,40.3c0-3.3-0.9-5.8-2.6-7.5c-2.2-2.2-4.9-2.2-5-2.2h-3.5v-2.1c2.2-1,3.6-2.6,4.5-3.9
				c1.3-2.1,1.6-4.1,1.6-4.2c0,0,0-0.1,0-0.2c0.5-0.1,0.9-0.4,1.2-0.7c1-1.1,0.9-2.8,0.9-3.5c-0.1-0.5-0.3-1-0.7-1.3
				c-0.1-0.1-0.2-0.1-0.2-0.2v-2.9c0-2.8-1-5.4-3-7.5c-1.5-1.6-3-2.4-3-2.4c-0.2-0.1-0.5-0.1-0.7,0l-0.8,0.5C16-0.4,13.2,0,13,0
				c-0.3,0-0.6,0.3-0.6,0.7v0.7C9.9,1.1,8.2,2,8.1,2C7.9,2.1,7.8,2.3,7.7,2.4s0,0.4,0,0.5l0.4,0.7C8.2,4.1,8,4.4,7.1,5.2
				C6.7,5.5,6.2,6,5.7,6.5C4.2,8.2,4.4,13,4.6,14.4c-0.1,0.1-0.3,0.1-0.4,0.2c-0.4,0.3-0.6,0.8-0.7,1.3c-0.1,0.7-0.1,2.4,0.9,3.5
				c0.3,0.4,0.8,0.6,1.3,0.8v0.1c0,0.2,0.3,2.2,1.7,4.3c0.9,1.3,2.3,2.9,4.5,3.8c0,0,0,0.8,0,2.2H8.3c-0.1,0-2.8,0-5,2.2
				c-1.7,1.7-2.6,4.2-2.6,7.5v2.8h29.5V40.3z M21.8,32c-0.3,3.3-3,5.9-6.4,5.9c-3.3,0-6.1-2.6-6.4-5.9h1c0.3,2.7,2.6,4.9,5.3,4.9
				s5-2.1,5.3-4.9H21.8z M25.4,18.5c-0.1,0.1-0.1,0.1-0.2,0.2v-3.1c0.1,0,0.2,0,0.2,0c0,0,0.1,0,0.1,0c0.1,0,0.2,0.1,0.2,0.1
				c0.1,0.1,0.1,0.1,0.2,0.3C26,16.9,25.9,17.9,25.4,18.5z M6.7,7.5C7.2,7,7.6,6.6,8,6.2c1-0.9,1.9-1.7,1.4-3c0,0,0-0.1-0.1-0.1
				l0-0.1c0.7-0.2,2-0.4,3.6-0.1c0.2,0,0.4,0,0.6-0.1c0.2-0.1,0.3-0.3,0.3-0.5V1.4c0.3,0,0.6,0.1,1,0.1c1.3,0.3,2.4,0.9,3.5,1.9
				c0.2,0.2,0.6,0.3,0.9,0.1L20,3c1.2,0.8,5,3.6,5,8.5v0.7c0,0,0,0,0,0l-1.5-1.4V9.2c0-0.2-0.1-0.4-0.3-0.5
				c-0.2-0.1-1.9-1.5-7.9-1.5c-5.9,0-7.7,1.3-7.9,1.5C7.4,8.8,7.3,9,7.3,9.2v1.6l-1.4,1.4C5.9,10.3,6.1,8.2,6.7,7.5z M5.4,18.5
				c-0.5-0.6-0.6-1.6-0.5-2.4c0-0.2,0.1-0.3,0.2-0.3c0.1-0.1,0.4-0.2,0.6-0.2v3.1C5.5,18.6,5.4,18.6,5.4,18.5z M8.4,23.9
				C7.4,22.2,7,20.5,7,20.3v-7.2l1.5-1.4c0.1-0.1,0.2-0.3,0.2-0.5V9.6c0.6-0.3,2.5-1,6.7-1s6.1,0.7,6.7,1v1.5c0,0.2,0.1,0.4,0.2,0.5
				l1.5,1.4v7.2c-0.1,0.3-0.4,1.9-1.5,3.6c-1.6,2.4-3.9,3.7-6.9,3.9h-0.1C12.3,27.6,10,26.3,8.4,23.9z M12.4,32
				c0.4,0,0.7-0.3,0.7-0.7v-2.5c0.7,0.2,1.4,0.3,2.2,0.3c0,0,0,0,0,0h0.2c0,0,0,0,0,0c0.8-0.1,1.5-0.2,2.2-0.3v2.5
				c0,0.4,0.3,0.7,0.7,0.7h0.9c-0.3,1.9-1.9,3.5-3.9,3.5S11.7,34,11.5,32H12.4z M2,40.3c0-6.8,4.1-8,5.6-8.3c0.3,4,3.7,7.2,7.7,7.2
				c4.1,0,7.4-3.2,7.7-7.2c0.8,0.1,2.2,0.5,3.5,1.7c1.4,1.4,2.2,3.6,2.2,6.5v1.4H2V40.3z"/>
		</g>
	</g>
</g>
</svg>
